G04 #@! TF.GenerationSoftware,KiCad,Pcbnew,5.1.8*
G04 #@! TF.CreationDate,2020-12-10T12:55:43+01:00*
G04 #@! TF.ProjectId,weather_station,77656174-6865-4725-9f73-746174696f6e,rev?*
G04 #@! TF.SameCoordinates,Original*
G04 #@! TF.FileFunction,Paste,Bot*
G04 #@! TF.FilePolarity,Positive*
%FSLAX46Y46*%
G04 Gerber Fmt 4.6, Leading zero omitted, Abs format (unit mm)*
G04 Created by KiCad (PCBNEW 5.1.8) date 2020-12-10 12:55:43*
%MOMM*%
%LPD*%
G01*
G04 APERTURE LIST*
%ADD10R,0.600000X0.450000*%
%ADD11R,2.000000X3.800000*%
%ADD12R,2.000000X1.500000*%
%ADD13R,0.800000X0.900000*%
%ADD14R,0.350000X0.500000*%
G04 APERTURE END LIST*
G36*
G01*
X141360000Y-99715000D02*
X141360000Y-100665000D01*
G75*
G02*
X141110000Y-100915000I-250000J0D01*
G01*
X140610000Y-100915000D01*
G75*
G02*
X140360000Y-100665000I0J250000D01*
G01*
X140360000Y-99715000D01*
G75*
G02*
X140610000Y-99465000I250000J0D01*
G01*
X141110000Y-99465000D01*
G75*
G02*
X141360000Y-99715000I0J-250000D01*
G01*
G37*
G36*
G01*
X143260000Y-99715000D02*
X143260000Y-100665000D01*
G75*
G02*
X143010000Y-100915000I-250000J0D01*
G01*
X142510000Y-100915000D01*
G75*
G02*
X142260000Y-100665000I0J250000D01*
G01*
X142260000Y-99715000D01*
G75*
G02*
X142510000Y-99465000I250000J0D01*
G01*
X143010000Y-99465000D01*
G75*
G02*
X143260000Y-99715000I0J-250000D01*
G01*
G37*
G36*
G01*
X140370000Y-105500000D02*
X140370000Y-105225000D01*
G75*
G02*
X140495000Y-105100000I125000J0D01*
G01*
X140745000Y-105100000D01*
G75*
G02*
X140870000Y-105225000I0J-125000D01*
G01*
X140870000Y-105500000D01*
G75*
G02*
X140745000Y-105625000I-125000J0D01*
G01*
X140495000Y-105625000D01*
G75*
G02*
X140370000Y-105500000I0J125000D01*
G01*
G37*
G36*
G01*
X141170000Y-105500000D02*
X141170000Y-105225000D01*
G75*
G02*
X141295000Y-105100000I125000J0D01*
G01*
X141545000Y-105100000D01*
G75*
G02*
X141670000Y-105225000I0J-125000D01*
G01*
X141670000Y-105500000D01*
G75*
G02*
X141545000Y-105625000I-125000J0D01*
G01*
X141295000Y-105625000D01*
G75*
G02*
X141170000Y-105500000I0J125000D01*
G01*
G37*
G36*
G01*
X141970000Y-105500000D02*
X141970000Y-105225000D01*
G75*
G02*
X142095000Y-105100000I125000J0D01*
G01*
X142345000Y-105100000D01*
G75*
G02*
X142470000Y-105225000I0J-125000D01*
G01*
X142470000Y-105500000D01*
G75*
G02*
X142345000Y-105625000I-125000J0D01*
G01*
X142095000Y-105625000D01*
G75*
G02*
X141970000Y-105500000I0J125000D01*
G01*
G37*
G36*
G01*
X142770000Y-105500000D02*
X142770000Y-105225000D01*
G75*
G02*
X142895000Y-105100000I125000J0D01*
G01*
X143145000Y-105100000D01*
G75*
G02*
X143270000Y-105225000I0J-125000D01*
G01*
X143270000Y-105500000D01*
G75*
G02*
X143145000Y-105625000I-125000J0D01*
G01*
X142895000Y-105625000D01*
G75*
G02*
X142770000Y-105500000I0J125000D01*
G01*
G37*
G36*
G01*
X142770000Y-103125000D02*
X142770000Y-102850000D01*
G75*
G02*
X142895000Y-102725000I125000J0D01*
G01*
X143145000Y-102725000D01*
G75*
G02*
X143270000Y-102850000I0J-125000D01*
G01*
X143270000Y-103125000D01*
G75*
G02*
X143145000Y-103250000I-125000J0D01*
G01*
X142895000Y-103250000D01*
G75*
G02*
X142770000Y-103125000I0J125000D01*
G01*
G37*
G36*
G01*
X141970000Y-103125000D02*
X141970000Y-102850000D01*
G75*
G02*
X142095000Y-102725000I125000J0D01*
G01*
X142345000Y-102725000D01*
G75*
G02*
X142470000Y-102850000I0J-125000D01*
G01*
X142470000Y-103125000D01*
G75*
G02*
X142345000Y-103250000I-125000J0D01*
G01*
X142095000Y-103250000D01*
G75*
G02*
X141970000Y-103125000I0J125000D01*
G01*
G37*
G36*
G01*
X141170000Y-103125000D02*
X141170000Y-102850000D01*
G75*
G02*
X141295000Y-102725000I125000J0D01*
G01*
X141545000Y-102725000D01*
G75*
G02*
X141670000Y-102850000I0J-125000D01*
G01*
X141670000Y-103125000D01*
G75*
G02*
X141545000Y-103250000I-125000J0D01*
G01*
X141295000Y-103250000D01*
G75*
G02*
X141170000Y-103125000I0J125000D01*
G01*
G37*
G36*
G01*
X140370000Y-103125000D02*
X140370000Y-102850000D01*
G75*
G02*
X140495000Y-102725000I125000J0D01*
G01*
X140745000Y-102725000D01*
G75*
G02*
X140870000Y-102850000I0J-125000D01*
G01*
X140870000Y-103125000D01*
G75*
G02*
X140745000Y-103250000I-125000J0D01*
G01*
X140495000Y-103250000D01*
G75*
G02*
X140370000Y-103125000I0J125000D01*
G01*
G37*
D10*
X156920000Y-131720000D03*
X159020000Y-131720000D03*
G36*
G01*
X141120000Y-91210000D02*
X141120000Y-89810000D01*
G75*
G02*
X141420000Y-89510000I300000J0D01*
G01*
X142020000Y-89510000D01*
G75*
G02*
X142320000Y-89810000I0J-300000D01*
G01*
X142320000Y-91210000D01*
G75*
G02*
X142020000Y-91510000I-300000J0D01*
G01*
X141420000Y-91510000D01*
G75*
G02*
X141120000Y-91210000I0J300000D01*
G01*
G37*
G36*
G01*
X145320000Y-91210000D02*
X145320000Y-89810000D01*
G75*
G02*
X145620000Y-89510000I300000J0D01*
G01*
X146220000Y-89510000D01*
G75*
G02*
X146520000Y-89810000I0J-300000D01*
G01*
X146520000Y-91210000D01*
G75*
G02*
X146220000Y-91510000I-300000J0D01*
G01*
X145620000Y-91510000D01*
G75*
G02*
X145320000Y-91210000I0J300000D01*
G01*
G37*
G36*
G01*
X154435000Y-103425000D02*
X154435000Y-103125000D01*
G75*
G02*
X154585000Y-102975000I150000J0D01*
G01*
X155835000Y-102975000D01*
G75*
G02*
X155985000Y-103125000I0J-150000D01*
G01*
X155985000Y-103425000D01*
G75*
G02*
X155835000Y-103575000I-150000J0D01*
G01*
X154585000Y-103575000D01*
G75*
G02*
X154435000Y-103425000I0J150000D01*
G01*
G37*
G36*
G01*
X154435000Y-102155000D02*
X154435000Y-101855000D01*
G75*
G02*
X154585000Y-101705000I150000J0D01*
G01*
X155835000Y-101705000D01*
G75*
G02*
X155985000Y-101855000I0J-150000D01*
G01*
X155985000Y-102155000D01*
G75*
G02*
X155835000Y-102305000I-150000J0D01*
G01*
X154585000Y-102305000D01*
G75*
G02*
X154435000Y-102155000I0J150000D01*
G01*
G37*
G36*
G01*
X154435000Y-100885000D02*
X154435000Y-100585000D01*
G75*
G02*
X154585000Y-100435000I150000J0D01*
G01*
X155835000Y-100435000D01*
G75*
G02*
X155985000Y-100585000I0J-150000D01*
G01*
X155985000Y-100885000D01*
G75*
G02*
X155835000Y-101035000I-150000J0D01*
G01*
X154585000Y-101035000D01*
G75*
G02*
X154435000Y-100885000I0J150000D01*
G01*
G37*
G36*
G01*
X154435000Y-99615000D02*
X154435000Y-99315000D01*
G75*
G02*
X154585000Y-99165000I150000J0D01*
G01*
X155835000Y-99165000D01*
G75*
G02*
X155985000Y-99315000I0J-150000D01*
G01*
X155985000Y-99615000D01*
G75*
G02*
X155835000Y-99765000I-150000J0D01*
G01*
X154585000Y-99765000D01*
G75*
G02*
X154435000Y-99615000I0J150000D01*
G01*
G37*
G36*
G01*
X149085000Y-99615000D02*
X149085000Y-99315000D01*
G75*
G02*
X149235000Y-99165000I150000J0D01*
G01*
X150485000Y-99165000D01*
G75*
G02*
X150635000Y-99315000I0J-150000D01*
G01*
X150635000Y-99615000D01*
G75*
G02*
X150485000Y-99765000I-150000J0D01*
G01*
X149235000Y-99765000D01*
G75*
G02*
X149085000Y-99615000I0J150000D01*
G01*
G37*
G36*
G01*
X149085000Y-100885000D02*
X149085000Y-100585000D01*
G75*
G02*
X149235000Y-100435000I150000J0D01*
G01*
X150485000Y-100435000D01*
G75*
G02*
X150635000Y-100585000I0J-150000D01*
G01*
X150635000Y-100885000D01*
G75*
G02*
X150485000Y-101035000I-150000J0D01*
G01*
X149235000Y-101035000D01*
G75*
G02*
X149085000Y-100885000I0J150000D01*
G01*
G37*
G36*
G01*
X149085000Y-102155000D02*
X149085000Y-101855000D01*
G75*
G02*
X149235000Y-101705000I150000J0D01*
G01*
X150485000Y-101705000D01*
G75*
G02*
X150635000Y-101855000I0J-150000D01*
G01*
X150635000Y-102155000D01*
G75*
G02*
X150485000Y-102305000I-150000J0D01*
G01*
X149235000Y-102305000D01*
G75*
G02*
X149085000Y-102155000I0J150000D01*
G01*
G37*
G36*
G01*
X149085000Y-103425000D02*
X149085000Y-103125000D01*
G75*
G02*
X149235000Y-102975000I150000J0D01*
G01*
X150485000Y-102975000D01*
G75*
G02*
X150635000Y-103125000I0J-150000D01*
G01*
X150635000Y-103425000D01*
G75*
G02*
X150485000Y-103575000I-150000J0D01*
G01*
X149235000Y-103575000D01*
G75*
G02*
X149085000Y-103425000I0J150000D01*
G01*
G37*
D11*
X153135000Y-117380000D03*
D12*
X159435000Y-117380000D03*
X159435000Y-119680000D03*
X159435000Y-115080000D03*
G36*
G01*
X152065000Y-97960002D02*
X152065000Y-97059998D01*
G75*
G02*
X152314998Y-96810000I249998J0D01*
G01*
X152840002Y-96810000D01*
G75*
G02*
X153090000Y-97059998I0J-249998D01*
G01*
X153090000Y-97960002D01*
G75*
G02*
X152840002Y-98210000I-249998J0D01*
G01*
X152314998Y-98210000D01*
G75*
G02*
X152065000Y-97960002I0J249998D01*
G01*
G37*
G36*
G01*
X153890000Y-97960002D02*
X153890000Y-97059998D01*
G75*
G02*
X154139998Y-96810000I249998J0D01*
G01*
X154665002Y-96810000D01*
G75*
G02*
X154915000Y-97059998I0J-249998D01*
G01*
X154915000Y-97960002D01*
G75*
G02*
X154665002Y-98210000I-249998J0D01*
G01*
X154139998Y-98210000D01*
G75*
G02*
X153890000Y-97960002I0J249998D01*
G01*
G37*
D10*
X159030000Y-129670000D03*
X156930000Y-129670000D03*
G36*
G01*
X159890000Y-124816250D02*
X159890000Y-123903750D01*
G75*
G02*
X160133750Y-123660000I243750J0D01*
G01*
X160621250Y-123660000D01*
G75*
G02*
X160865000Y-123903750I0J-243750D01*
G01*
X160865000Y-124816250D01*
G75*
G02*
X160621250Y-125060000I-243750J0D01*
G01*
X160133750Y-125060000D01*
G75*
G02*
X159890000Y-124816250I0J243750D01*
G01*
G37*
G36*
G01*
X158015000Y-124816250D02*
X158015000Y-123903750D01*
G75*
G02*
X158258750Y-123660000I243750J0D01*
G01*
X158746250Y-123660000D01*
G75*
G02*
X158990000Y-123903750I0J-243750D01*
G01*
X158990000Y-124816250D01*
G75*
G02*
X158746250Y-125060000I-243750J0D01*
G01*
X158258750Y-125060000D01*
G75*
G02*
X158015000Y-124816250I0J243750D01*
G01*
G37*
G36*
G01*
X157815002Y-105035000D02*
X156914998Y-105035000D01*
G75*
G02*
X156665000Y-104785002I0J249998D01*
G01*
X156665000Y-104259998D01*
G75*
G02*
X156914998Y-104010000I249998J0D01*
G01*
X157815002Y-104010000D01*
G75*
G02*
X158065000Y-104259998I0J-249998D01*
G01*
X158065000Y-104785002D01*
G75*
G02*
X157815002Y-105035000I-249998J0D01*
G01*
G37*
G36*
G01*
X157815002Y-103210000D02*
X156914998Y-103210000D01*
G75*
G02*
X156665000Y-102960002I0J249998D01*
G01*
X156665000Y-102434998D01*
G75*
G02*
X156914998Y-102185000I249998J0D01*
G01*
X157815002Y-102185000D01*
G75*
G02*
X158065000Y-102434998I0J-249998D01*
G01*
X158065000Y-102960002D01*
G75*
G02*
X157815002Y-103210000I-249998J0D01*
G01*
G37*
G36*
G01*
X144369998Y-100700000D02*
X145270002Y-100700000D01*
G75*
G02*
X145520000Y-100949998I0J-249998D01*
G01*
X145520000Y-101475002D01*
G75*
G02*
X145270002Y-101725000I-249998J0D01*
G01*
X144369998Y-101725000D01*
G75*
G02*
X144120000Y-101475002I0J249998D01*
G01*
X144120000Y-100949998D01*
G75*
G02*
X144369998Y-100700000I249998J0D01*
G01*
G37*
G36*
G01*
X144369998Y-102525000D02*
X145270002Y-102525000D01*
G75*
G02*
X145520000Y-102774998I0J-249998D01*
G01*
X145520000Y-103300002D01*
G75*
G02*
X145270002Y-103550000I-249998J0D01*
G01*
X144369998Y-103550000D01*
G75*
G02*
X144120000Y-103300002I0J249998D01*
G01*
X144120000Y-102774998D01*
G75*
G02*
X144369998Y-102525000I249998J0D01*
G01*
G37*
G36*
G01*
X159840002Y-103210000D02*
X158939998Y-103210000D01*
G75*
G02*
X158690000Y-102960002I0J249998D01*
G01*
X158690000Y-102434998D01*
G75*
G02*
X158939998Y-102185000I249998J0D01*
G01*
X159840002Y-102185000D01*
G75*
G02*
X160090000Y-102434998I0J-249998D01*
G01*
X160090000Y-102960002D01*
G75*
G02*
X159840002Y-103210000I-249998J0D01*
G01*
G37*
G36*
G01*
X159840002Y-105035000D02*
X158939998Y-105035000D01*
G75*
G02*
X158690000Y-104785002I0J249998D01*
G01*
X158690000Y-104259998D01*
G75*
G02*
X158939998Y-104010000I249998J0D01*
G01*
X159840002Y-104010000D01*
G75*
G02*
X160090000Y-104259998I0J-249998D01*
G01*
X160090000Y-104785002D01*
G75*
G02*
X159840002Y-105035000I-249998J0D01*
G01*
G37*
G36*
G01*
X155755000Y-90165002D02*
X155755000Y-89264998D01*
G75*
G02*
X156004998Y-89015000I249998J0D01*
G01*
X156530002Y-89015000D01*
G75*
G02*
X156780000Y-89264998I0J-249998D01*
G01*
X156780000Y-90165002D01*
G75*
G02*
X156530002Y-90415000I-249998J0D01*
G01*
X156004998Y-90415000D01*
G75*
G02*
X155755000Y-90165002I0J249998D01*
G01*
G37*
G36*
G01*
X153930000Y-90165002D02*
X153930000Y-89264998D01*
G75*
G02*
X154179998Y-89015000I249998J0D01*
G01*
X154705002Y-89015000D01*
G75*
G02*
X154955000Y-89264998I0J-249998D01*
G01*
X154955000Y-90165002D01*
G75*
G02*
X154705002Y-90415000I-249998J0D01*
G01*
X154179998Y-90415000D01*
G75*
G02*
X153930000Y-90165002I0J249998D01*
G01*
G37*
G36*
G01*
X157110000Y-121579999D02*
X157110000Y-122880001D01*
G75*
G02*
X156860001Y-123130000I-249999J0D01*
G01*
X156209999Y-123130000D01*
G75*
G02*
X155960000Y-122880001I0J249999D01*
G01*
X155960000Y-121579999D01*
G75*
G02*
X156209999Y-121330000I249999J0D01*
G01*
X156860001Y-121330000D01*
G75*
G02*
X157110000Y-121579999I0J-249999D01*
G01*
G37*
G36*
G01*
X154160000Y-121579999D02*
X154160000Y-122880001D01*
G75*
G02*
X153910001Y-123130000I-249999J0D01*
G01*
X153259999Y-123130000D01*
G75*
G02*
X153010000Y-122880001I0J249999D01*
G01*
X153010000Y-121579999D01*
G75*
G02*
X153259999Y-121330000I249999J0D01*
G01*
X153910001Y-121330000D01*
G75*
G02*
X154160000Y-121579999I0J-249999D01*
G01*
G37*
G36*
G01*
X155135000Y-124105000D02*
X155135000Y-125055000D01*
G75*
G02*
X154885000Y-125305000I-250000J0D01*
G01*
X154385000Y-125305000D01*
G75*
G02*
X154135000Y-125055000I0J250000D01*
G01*
X154135000Y-124105000D01*
G75*
G02*
X154385000Y-123855000I250000J0D01*
G01*
X154885000Y-123855000D01*
G75*
G02*
X155135000Y-124105000I0J-250000D01*
G01*
G37*
G36*
G01*
X157035000Y-124105000D02*
X157035000Y-125055000D01*
G75*
G02*
X156785000Y-125305000I-250000J0D01*
G01*
X156285000Y-125305000D01*
G75*
G02*
X156035000Y-125055000I0J250000D01*
G01*
X156035000Y-124105000D01*
G75*
G02*
X156285000Y-123855000I250000J0D01*
G01*
X156785000Y-123855000D01*
G75*
G02*
X157035000Y-124105000I0J-250000D01*
G01*
G37*
G36*
G01*
X156280000Y-110585000D02*
X156280000Y-109635000D01*
G75*
G02*
X156530000Y-109385000I250000J0D01*
G01*
X157030000Y-109385000D01*
G75*
G02*
X157280000Y-109635000I0J-250000D01*
G01*
X157280000Y-110585000D01*
G75*
G02*
X157030000Y-110835000I-250000J0D01*
G01*
X156530000Y-110835000D01*
G75*
G02*
X156280000Y-110585000I0J250000D01*
G01*
G37*
G36*
G01*
X158180000Y-110585000D02*
X158180000Y-109635000D01*
G75*
G02*
X158430000Y-109385000I250000J0D01*
G01*
X158930000Y-109385000D01*
G75*
G02*
X159180000Y-109635000I0J-250000D01*
G01*
X159180000Y-110585000D01*
G75*
G02*
X158930000Y-110835000I-250000J0D01*
G01*
X158430000Y-110835000D01*
G75*
G02*
X158180000Y-110585000I0J250000D01*
G01*
G37*
G36*
G01*
X159155000Y-113110001D02*
X159155000Y-111809999D01*
G75*
G02*
X159404999Y-111560000I249999J0D01*
G01*
X160055001Y-111560000D01*
G75*
G02*
X160305000Y-111809999I0J-249999D01*
G01*
X160305000Y-113110001D01*
G75*
G02*
X160055001Y-113360000I-249999J0D01*
G01*
X159404999Y-113360000D01*
G75*
G02*
X159155000Y-113110001I0J249999D01*
G01*
G37*
G36*
G01*
X156205000Y-113110001D02*
X156205000Y-111809999D01*
G75*
G02*
X156454999Y-111560000I249999J0D01*
G01*
X157105001Y-111560000D01*
G75*
G02*
X157355000Y-111809999I0J-249999D01*
G01*
X157355000Y-113110001D01*
G75*
G02*
X157105001Y-113360000I-249999J0D01*
G01*
X156454999Y-113360000D01*
G75*
G02*
X156205000Y-113110001I0J249999D01*
G01*
G37*
G36*
G01*
X152460000Y-106470000D02*
X153410000Y-106470000D01*
G75*
G02*
X153660000Y-106720000I0J-250000D01*
G01*
X153660000Y-107220000D01*
G75*
G02*
X153410000Y-107470000I-250000J0D01*
G01*
X152460000Y-107470000D01*
G75*
G02*
X152210000Y-107220000I0J250000D01*
G01*
X152210000Y-106720000D01*
G75*
G02*
X152460000Y-106470000I250000J0D01*
G01*
G37*
G36*
G01*
X152460000Y-104570000D02*
X153410000Y-104570000D01*
G75*
G02*
X153660000Y-104820000I0J-250000D01*
G01*
X153660000Y-105320000D01*
G75*
G02*
X153410000Y-105570000I-250000J0D01*
G01*
X152460000Y-105570000D01*
G75*
G02*
X152210000Y-105320000I0J250000D01*
G01*
X152210000Y-104820000D01*
G75*
G02*
X152460000Y-104570000I250000J0D01*
G01*
G37*
G36*
G01*
X154610000Y-106470000D02*
X155560000Y-106470000D01*
G75*
G02*
X155810000Y-106720000I0J-250000D01*
G01*
X155810000Y-107220000D01*
G75*
G02*
X155560000Y-107470000I-250000J0D01*
G01*
X154610000Y-107470000D01*
G75*
G02*
X154360000Y-107220000I0J250000D01*
G01*
X154360000Y-106720000D01*
G75*
G02*
X154610000Y-106470000I250000J0D01*
G01*
G37*
G36*
G01*
X154610000Y-104570000D02*
X155560000Y-104570000D01*
G75*
G02*
X155810000Y-104820000I0J-250000D01*
G01*
X155810000Y-105320000D01*
G75*
G02*
X155560000Y-105570000I-250000J0D01*
G01*
X154610000Y-105570000D01*
G75*
G02*
X154360000Y-105320000I0J250000D01*
G01*
X154360000Y-104820000D01*
G75*
G02*
X154610000Y-104570000I250000J0D01*
G01*
G37*
G36*
G01*
X141370000Y-97585000D02*
X141370000Y-98535000D01*
G75*
G02*
X141120000Y-98785000I-250000J0D01*
G01*
X140620000Y-98785000D01*
G75*
G02*
X140370000Y-98535000I0J250000D01*
G01*
X140370000Y-97585000D01*
G75*
G02*
X140620000Y-97335000I250000J0D01*
G01*
X141120000Y-97335000D01*
G75*
G02*
X141370000Y-97585000I0J-250000D01*
G01*
G37*
G36*
G01*
X143270000Y-97585000D02*
X143270000Y-98535000D01*
G75*
G02*
X143020000Y-98785000I-250000J0D01*
G01*
X142520000Y-98785000D01*
G75*
G02*
X142270000Y-98535000I0J250000D01*
G01*
X142270000Y-97585000D01*
G75*
G02*
X142520000Y-97335000I250000J0D01*
G01*
X143020000Y-97335000D01*
G75*
G02*
X143270000Y-97585000I0J-250000D01*
G01*
G37*
G36*
G01*
X155495000Y-109923750D02*
X155495000Y-110836250D01*
G75*
G02*
X155251250Y-111080000I-243750J0D01*
G01*
X154763750Y-111080000D01*
G75*
G02*
X154520000Y-110836250I0J243750D01*
G01*
X154520000Y-109923750D01*
G75*
G02*
X154763750Y-109680000I243750J0D01*
G01*
X155251250Y-109680000D01*
G75*
G02*
X155495000Y-109923750I0J-243750D01*
G01*
G37*
G36*
G01*
X153620000Y-109923750D02*
X153620000Y-110836250D01*
G75*
G02*
X153376250Y-111080000I-243750J0D01*
G01*
X152888750Y-111080000D01*
G75*
G02*
X152645000Y-110836250I0J243750D01*
G01*
X152645000Y-109923750D01*
G75*
G02*
X152888750Y-109680000I243750J0D01*
G01*
X153376250Y-109680000D01*
G75*
G02*
X153620000Y-109923750I0J-243750D01*
G01*
G37*
D13*
X156255000Y-91590000D03*
X158155000Y-91590000D03*
X157205000Y-93590000D03*
X148930000Y-95715000D03*
X150830000Y-95715000D03*
X149880000Y-97715000D03*
X153555000Y-93690000D03*
X152605000Y-95690000D03*
X154505000Y-95690000D03*
G36*
G01*
X144500000Y-94899998D02*
X144500000Y-95800002D01*
G75*
G02*
X144250002Y-96050000I-249998J0D01*
G01*
X143724998Y-96050000D01*
G75*
G02*
X143475000Y-95800002I0J249998D01*
G01*
X143475000Y-94899998D01*
G75*
G02*
X143724998Y-94650000I249998J0D01*
G01*
X144250002Y-94650000D01*
G75*
G02*
X144500000Y-94899998I0J-249998D01*
G01*
G37*
G36*
G01*
X146325000Y-94899998D02*
X146325000Y-95800002D01*
G75*
G02*
X146075002Y-96050000I-249998J0D01*
G01*
X145549998Y-96050000D01*
G75*
G02*
X145300000Y-95800002I0J249998D01*
G01*
X145300000Y-94899998D01*
G75*
G02*
X145549998Y-94650000I249998J0D01*
G01*
X146075002Y-94650000D01*
G75*
G02*
X146325000Y-94899998I0J-249998D01*
G01*
G37*
G36*
G01*
X143475000Y-93775002D02*
X143475000Y-92874998D01*
G75*
G02*
X143724998Y-92625000I249998J0D01*
G01*
X144250002Y-92625000D01*
G75*
G02*
X144500000Y-92874998I0J-249998D01*
G01*
X144500000Y-93775002D01*
G75*
G02*
X144250002Y-94025000I-249998J0D01*
G01*
X143724998Y-94025000D01*
G75*
G02*
X143475000Y-93775002I0J249998D01*
G01*
G37*
G36*
G01*
X145300000Y-93775002D02*
X145300000Y-92874998D01*
G75*
G02*
X145549998Y-92625000I249998J0D01*
G01*
X146075002Y-92625000D01*
G75*
G02*
X146325000Y-92874998I0J-249998D01*
G01*
X146325000Y-93775002D01*
G75*
G02*
X146075002Y-94025000I-249998J0D01*
G01*
X145549998Y-94025000D01*
G75*
G02*
X145300000Y-93775002I0J249998D01*
G01*
G37*
G36*
G01*
X140280002Y-115170000D02*
X139379998Y-115170000D01*
G75*
G02*
X139130000Y-114920002I0J249998D01*
G01*
X139130000Y-114394998D01*
G75*
G02*
X139379998Y-114145000I249998J0D01*
G01*
X140280002Y-114145000D01*
G75*
G02*
X140530000Y-114394998I0J-249998D01*
G01*
X140530000Y-114920002D01*
G75*
G02*
X140280002Y-115170000I-249998J0D01*
G01*
G37*
G36*
G01*
X140280002Y-116995000D02*
X139379998Y-116995000D01*
G75*
G02*
X139130000Y-116745002I0J249998D01*
G01*
X139130000Y-116219998D01*
G75*
G02*
X139379998Y-115970000I249998J0D01*
G01*
X140280002Y-115970000D01*
G75*
G02*
X140530000Y-116219998I0J-249998D01*
G01*
X140530000Y-116745002D01*
G75*
G02*
X140280002Y-116995000I-249998J0D01*
G01*
G37*
G36*
G01*
X141529998Y-114145000D02*
X142430002Y-114145000D01*
G75*
G02*
X142680000Y-114394998I0J-249998D01*
G01*
X142680000Y-114920002D01*
G75*
G02*
X142430002Y-115170000I-249998J0D01*
G01*
X141529998Y-115170000D01*
G75*
G02*
X141280000Y-114920002I0J249998D01*
G01*
X141280000Y-114394998D01*
G75*
G02*
X141529998Y-114145000I249998J0D01*
G01*
G37*
G36*
G01*
X141529998Y-115970000D02*
X142430002Y-115970000D01*
G75*
G02*
X142680000Y-116219998I0J-249998D01*
G01*
X142680000Y-116745002D01*
G75*
G02*
X142430002Y-116995000I-249998J0D01*
G01*
X141529998Y-116995000D01*
G75*
G02*
X141280000Y-116745002I0J249998D01*
G01*
X141280000Y-116219998D01*
G75*
G02*
X141529998Y-115970000I249998J0D01*
G01*
G37*
G36*
G01*
X146499998Y-100687500D02*
X147400002Y-100687500D01*
G75*
G02*
X147650000Y-100937498I0J-249998D01*
G01*
X147650000Y-101462502D01*
G75*
G02*
X147400002Y-101712500I-249998J0D01*
G01*
X146499998Y-101712500D01*
G75*
G02*
X146250000Y-101462502I0J249998D01*
G01*
X146250000Y-100937498D01*
G75*
G02*
X146499998Y-100687500I249998J0D01*
G01*
G37*
G36*
G01*
X146499998Y-102512500D02*
X147400002Y-102512500D01*
G75*
G02*
X147650000Y-102762498I0J-249998D01*
G01*
X147650000Y-103287502D01*
G75*
G02*
X147400002Y-103537500I-249998J0D01*
G01*
X146499998Y-103537500D01*
G75*
G02*
X146250000Y-103287502I0J249998D01*
G01*
X146250000Y-102762498D01*
G75*
G02*
X146499998Y-102512500I249998J0D01*
G01*
G37*
G36*
G01*
X141699998Y-94625000D02*
X142600002Y-94625000D01*
G75*
G02*
X142850000Y-94874998I0J-249998D01*
G01*
X142850000Y-95400002D01*
G75*
G02*
X142600002Y-95650000I-249998J0D01*
G01*
X141699998Y-95650000D01*
G75*
G02*
X141450000Y-95400002I0J249998D01*
G01*
X141450000Y-94874998D01*
G75*
G02*
X141699998Y-94625000I249998J0D01*
G01*
G37*
G36*
G01*
X141699998Y-92800000D02*
X142600002Y-92800000D01*
G75*
G02*
X142850000Y-93049998I0J-249998D01*
G01*
X142850000Y-93575002D01*
G75*
G02*
X142600002Y-93825000I-249998J0D01*
G01*
X141699998Y-93825000D01*
G75*
G02*
X141450000Y-93575002I0J249998D01*
G01*
X141450000Y-93049998D01*
G75*
G02*
X141699998Y-92800000I249998J0D01*
G01*
G37*
G36*
G01*
X155515000Y-112039998D02*
X155515000Y-112940002D01*
G75*
G02*
X155265002Y-113190000I-249998J0D01*
G01*
X154739998Y-113190000D01*
G75*
G02*
X154490000Y-112940002I0J249998D01*
G01*
X154490000Y-112039998D01*
G75*
G02*
X154739998Y-111790000I249998J0D01*
G01*
X155265002Y-111790000D01*
G75*
G02*
X155515000Y-112039998I0J-249998D01*
G01*
G37*
G36*
G01*
X153690000Y-112039998D02*
X153690000Y-112940002D01*
G75*
G02*
X153440002Y-113190000I-249998J0D01*
G01*
X152914998Y-113190000D01*
G75*
G02*
X152665000Y-112940002I0J249998D01*
G01*
X152665000Y-112039998D01*
G75*
G02*
X152914998Y-111790000I249998J0D01*
G01*
X153440002Y-111790000D01*
G75*
G02*
X153690000Y-112039998I0J-249998D01*
G01*
G37*
G36*
G01*
X157995000Y-122690002D02*
X157995000Y-121789998D01*
G75*
G02*
X158244998Y-121540000I249998J0D01*
G01*
X158770002Y-121540000D01*
G75*
G02*
X159020000Y-121789998I0J-249998D01*
G01*
X159020000Y-122690002D01*
G75*
G02*
X158770002Y-122940000I-249998J0D01*
G01*
X158244998Y-122940000D01*
G75*
G02*
X157995000Y-122690002I0J249998D01*
G01*
G37*
G36*
G01*
X159820000Y-122690002D02*
X159820000Y-121789998D01*
G75*
G02*
X160069998Y-121540000I249998J0D01*
G01*
X160595002Y-121540000D01*
G75*
G02*
X160845000Y-121789998I0J-249998D01*
G01*
X160845000Y-122690002D01*
G75*
G02*
X160595002Y-122940000I-249998J0D01*
G01*
X160069998Y-122940000D01*
G75*
G02*
X159820000Y-122690002I0J249998D01*
G01*
G37*
G36*
G01*
X159654998Y-92990000D02*
X160555002Y-92990000D01*
G75*
G02*
X160805000Y-93239998I0J-249998D01*
G01*
X160805000Y-93765002D01*
G75*
G02*
X160555002Y-94015000I-249998J0D01*
G01*
X159654998Y-94015000D01*
G75*
G02*
X159405000Y-93765002I0J249998D01*
G01*
X159405000Y-93239998D01*
G75*
G02*
X159654998Y-92990000I249998J0D01*
G01*
G37*
G36*
G01*
X159654998Y-91165000D02*
X160555002Y-91165000D01*
G75*
G02*
X160805000Y-91414998I0J-249998D01*
G01*
X160805000Y-91940002D01*
G75*
G02*
X160555002Y-92190000I-249998J0D01*
G01*
X159654998Y-92190000D01*
G75*
G02*
X159405000Y-91940002I0J249998D01*
G01*
X159405000Y-91414998D01*
G75*
G02*
X159654998Y-91165000I249998J0D01*
G01*
G37*
G36*
G01*
X146287500Y-99720002D02*
X146287500Y-98819998D01*
G75*
G02*
X146537498Y-98570000I249998J0D01*
G01*
X147062502Y-98570000D01*
G75*
G02*
X147312500Y-98819998I0J-249998D01*
G01*
X147312500Y-99720002D01*
G75*
G02*
X147062502Y-99970000I-249998J0D01*
G01*
X146537498Y-99970000D01*
G75*
G02*
X146287500Y-99720002I0J249998D01*
G01*
G37*
G36*
G01*
X144462500Y-99720002D02*
X144462500Y-98819998D01*
G75*
G02*
X144712498Y-98570000I249998J0D01*
G01*
X145237502Y-98570000D01*
G75*
G02*
X145487500Y-98819998I0J-249998D01*
G01*
X145487500Y-99720002D01*
G75*
G02*
X145237502Y-99970000I-249998J0D01*
G01*
X144712498Y-99970000D01*
G75*
G02*
X144462500Y-99720002I0J249998D01*
G01*
G37*
G36*
G01*
X160605000Y-89264998D02*
X160605000Y-90165002D01*
G75*
G02*
X160355002Y-90415000I-249998J0D01*
G01*
X159829998Y-90415000D01*
G75*
G02*
X159580000Y-90165002I0J249998D01*
G01*
X159580000Y-89264998D01*
G75*
G02*
X159829998Y-89015000I249998J0D01*
G01*
X160355002Y-89015000D01*
G75*
G02*
X160605000Y-89264998I0J-249998D01*
G01*
G37*
G36*
G01*
X158780000Y-89264998D02*
X158780000Y-90165002D01*
G75*
G02*
X158530002Y-90415000I-249998J0D01*
G01*
X158004998Y-90415000D01*
G75*
G02*
X157755000Y-90165002I0J249998D01*
G01*
X157755000Y-89264998D01*
G75*
G02*
X158004998Y-89015000I249998J0D01*
G01*
X158530002Y-89015000D01*
G75*
G02*
X158780000Y-89264998I0J-249998D01*
G01*
G37*
G36*
G01*
X148455000Y-94365002D02*
X148455000Y-93464998D01*
G75*
G02*
X148704998Y-93215000I249998J0D01*
G01*
X149230002Y-93215000D01*
G75*
G02*
X149480000Y-93464998I0J-249998D01*
G01*
X149480000Y-94365002D01*
G75*
G02*
X149230002Y-94615000I-249998J0D01*
G01*
X148704998Y-94615000D01*
G75*
G02*
X148455000Y-94365002I0J249998D01*
G01*
G37*
G36*
G01*
X150280000Y-94365002D02*
X150280000Y-93464998D01*
G75*
G02*
X150529998Y-93215000I249998J0D01*
G01*
X151055002Y-93215000D01*
G75*
G02*
X151305000Y-93464998I0J-249998D01*
G01*
X151305000Y-94365002D01*
G75*
G02*
X151055002Y-94615000I-249998J0D01*
G01*
X150529998Y-94615000D01*
G75*
G02*
X150280000Y-94365002I0J249998D01*
G01*
G37*
G36*
G01*
X149480000Y-91364998D02*
X149480000Y-92265002D01*
G75*
G02*
X149230002Y-92515000I-249998J0D01*
G01*
X148704998Y-92515000D01*
G75*
G02*
X148455000Y-92265002I0J249998D01*
G01*
X148455000Y-91364998D01*
G75*
G02*
X148704998Y-91115000I249998J0D01*
G01*
X149230002Y-91115000D01*
G75*
G02*
X149480000Y-91364998I0J-249998D01*
G01*
G37*
G36*
G01*
X151305000Y-91364998D02*
X151305000Y-92265002D01*
G75*
G02*
X151055002Y-92515000I-249998J0D01*
G01*
X150529998Y-92515000D01*
G75*
G02*
X150280000Y-92265002I0J249998D01*
G01*
X150280000Y-91364998D01*
G75*
G02*
X150529998Y-91115000I249998J0D01*
G01*
X151055002Y-91115000D01*
G75*
G02*
X151305000Y-91364998I0J-249998D01*
G01*
G37*
G36*
G01*
X157815002Y-101560000D02*
X156914998Y-101560000D01*
G75*
G02*
X156665000Y-101310002I0J249998D01*
G01*
X156665000Y-100784998D01*
G75*
G02*
X156914998Y-100535000I249998J0D01*
G01*
X157815002Y-100535000D01*
G75*
G02*
X158065000Y-100784998I0J-249998D01*
G01*
X158065000Y-101310002D01*
G75*
G02*
X157815002Y-101560000I-249998J0D01*
G01*
G37*
G36*
G01*
X157815002Y-99735000D02*
X156914998Y-99735000D01*
G75*
G02*
X156665000Y-99485002I0J249998D01*
G01*
X156665000Y-98959998D01*
G75*
G02*
X156914998Y-98710000I249998J0D01*
G01*
X157815002Y-98710000D01*
G75*
G02*
X158065000Y-98959998I0J-249998D01*
G01*
X158065000Y-99485002D01*
G75*
G02*
X157815002Y-99735000I-249998J0D01*
G01*
G37*
G36*
G01*
X159840002Y-99735000D02*
X158939998Y-99735000D01*
G75*
G02*
X158690000Y-99485002I0J249998D01*
G01*
X158690000Y-98959998D01*
G75*
G02*
X158939998Y-98710000I249998J0D01*
G01*
X159840002Y-98710000D01*
G75*
G02*
X160090000Y-98959998I0J-249998D01*
G01*
X160090000Y-99485002D01*
G75*
G02*
X159840002Y-99735000I-249998J0D01*
G01*
G37*
G36*
G01*
X159840002Y-101560000D02*
X158939998Y-101560000D01*
G75*
G02*
X158690000Y-101310002I0J249998D01*
G01*
X158690000Y-100784998D01*
G75*
G02*
X158939998Y-100535000I249998J0D01*
G01*
X159840002Y-100535000D01*
G75*
G02*
X160090000Y-100784998I0J-249998D01*
G01*
X160090000Y-101310002D01*
G75*
G02*
X159840002Y-101560000I-249998J0D01*
G01*
G37*
G36*
G01*
X155949998Y-95175000D02*
X156850002Y-95175000D01*
G75*
G02*
X157100000Y-95424998I0J-249998D01*
G01*
X157100000Y-95950002D01*
G75*
G02*
X156850002Y-96200000I-249998J0D01*
G01*
X155949998Y-96200000D01*
G75*
G02*
X155700000Y-95950002I0J249998D01*
G01*
X155700000Y-95424998D01*
G75*
G02*
X155949998Y-95175000I249998J0D01*
G01*
G37*
G36*
G01*
X155949998Y-97000000D02*
X156850002Y-97000000D01*
G75*
G02*
X157100000Y-97249998I0J-249998D01*
G01*
X157100000Y-97775002D01*
G75*
G02*
X156850002Y-98025000I-249998J0D01*
G01*
X155949998Y-98025000D01*
G75*
G02*
X155700000Y-97775002I0J249998D01*
G01*
X155700000Y-97249998D01*
G75*
G02*
X155949998Y-97000000I249998J0D01*
G01*
G37*
G36*
G01*
X153930000Y-92265002D02*
X153930000Y-91364998D01*
G75*
G02*
X154179998Y-91115000I249998J0D01*
G01*
X154705002Y-91115000D01*
G75*
G02*
X154955000Y-91364998I0J-249998D01*
G01*
X154955000Y-92265002D01*
G75*
G02*
X154705002Y-92515000I-249998J0D01*
G01*
X154179998Y-92515000D01*
G75*
G02*
X153930000Y-92265002I0J249998D01*
G01*
G37*
G36*
G01*
X152105000Y-92265002D02*
X152105000Y-91364998D01*
G75*
G02*
X152354998Y-91115000I249998J0D01*
G01*
X152880002Y-91115000D01*
G75*
G02*
X153130000Y-91364998I0J-249998D01*
G01*
X153130000Y-92265002D01*
G75*
G02*
X152880002Y-92515000I-249998J0D01*
G01*
X152354998Y-92515000D01*
G75*
G02*
X152105000Y-92265002I0J249998D01*
G01*
G37*
G36*
G01*
X146180000Y-105390002D02*
X146180000Y-104489998D01*
G75*
G02*
X146429998Y-104240000I249998J0D01*
G01*
X146955002Y-104240000D01*
G75*
G02*
X147205000Y-104489998I0J-249998D01*
G01*
X147205000Y-105390002D01*
G75*
G02*
X146955002Y-105640000I-249998J0D01*
G01*
X146429998Y-105640000D01*
G75*
G02*
X146180000Y-105390002I0J249998D01*
G01*
G37*
G36*
G01*
X144355000Y-105390002D02*
X144355000Y-104489998D01*
G75*
G02*
X144604998Y-104240000I249998J0D01*
G01*
X145130002Y-104240000D01*
G75*
G02*
X145380000Y-104489998I0J-249998D01*
G01*
X145380000Y-105390002D01*
G75*
G02*
X145130002Y-105640000I-249998J0D01*
G01*
X144604998Y-105640000D01*
G75*
G02*
X144355000Y-105390002I0J249998D01*
G01*
G37*
D14*
X142720000Y-104125000D03*
X142070000Y-104125000D03*
X141420000Y-104125000D03*
X140770000Y-104125000D03*
X140770000Y-102075000D03*
X141420000Y-102075000D03*
X142070000Y-102075000D03*
X142720000Y-102075000D03*
M02*
