G04 #@! TF.GenerationSoftware,KiCad,Pcbnew,5.1.8*
G04 #@! TF.CreationDate,2020-12-10T12:55:43+01:00*
G04 #@! TF.ProjectId,weather_station,77656174-6865-4725-9f73-746174696f6e,rev?*
G04 #@! TF.SameCoordinates,Original*
G04 #@! TF.FileFunction,Paste,Top*
G04 #@! TF.FilePolarity,Positive*
%FSLAX46Y46*%
G04 Gerber Fmt 4.6, Leading zero omitted, Abs format (unit mm)*
G04 Created by KiCad (PCBNEW 5.1.8) date 2020-12-10 12:55:43*
%MOMM*%
%LPD*%
G01*
G04 APERTURE LIST*
%ADD10R,0.900000X0.800000*%
%ADD11R,1.150000X0.300000*%
%ADD12R,1.900000X1.000000*%
%ADD13R,1.900000X1.800000*%
%ADD14R,1.300000X1.650000*%
%ADD15R,1.550000X1.425000*%
%ADD16R,1.380000X0.450000*%
%ADD17R,0.800000X0.900000*%
%ADD18R,2.500000X1.000000*%
%ADD19R,1.000000X1.800000*%
G04 APERTURE END LIST*
D10*
X145320000Y-135270000D03*
X143320000Y-136220000D03*
X143320000Y-134320000D03*
D11*
X154530000Y-127620000D03*
X154530000Y-128420000D03*
X154530000Y-133220000D03*
X154530000Y-134020000D03*
X154530000Y-134320000D03*
X154530000Y-133520000D03*
X154530000Y-132720000D03*
X154530000Y-132220000D03*
X154530000Y-131720000D03*
X154530000Y-131220000D03*
X154530000Y-130720000D03*
X154530000Y-130220000D03*
X154530000Y-129720000D03*
X154530000Y-129220000D03*
X154530000Y-128720000D03*
X154530000Y-127920000D03*
G36*
G01*
X152350000Y-107330002D02*
X152350000Y-106429998D01*
G75*
G02*
X152599998Y-106180000I249998J0D01*
G01*
X153125002Y-106180000D01*
G75*
G02*
X153375000Y-106429998I0J-249998D01*
G01*
X153375000Y-107330002D01*
G75*
G02*
X153125002Y-107580000I-249998J0D01*
G01*
X152599998Y-107580000D01*
G75*
G02*
X152350000Y-107330002I0J249998D01*
G01*
G37*
G36*
G01*
X150525000Y-107330002D02*
X150525000Y-106429998D01*
G75*
G02*
X150774998Y-106180000I249998J0D01*
G01*
X151300002Y-106180000D01*
G75*
G02*
X151550000Y-106429998I0J-249998D01*
G01*
X151550000Y-107330002D01*
G75*
G02*
X151300002Y-107580000I-249998J0D01*
G01*
X150774998Y-107580000D01*
G75*
G02*
X150525000Y-107330002I0J249998D01*
G01*
G37*
G36*
G01*
X150545000Y-109370002D02*
X150545000Y-108469998D01*
G75*
G02*
X150794998Y-108220000I249998J0D01*
G01*
X151320002Y-108220000D01*
G75*
G02*
X151570000Y-108469998I0J-249998D01*
G01*
X151570000Y-109370002D01*
G75*
G02*
X151320002Y-109620000I-249998J0D01*
G01*
X150794998Y-109620000D01*
G75*
G02*
X150545000Y-109370002I0J249998D01*
G01*
G37*
G36*
G01*
X152370000Y-109370002D02*
X152370000Y-108469998D01*
G75*
G02*
X152619998Y-108220000I249998J0D01*
G01*
X153145002Y-108220000D01*
G75*
G02*
X153395000Y-108469998I0J-249998D01*
G01*
X153395000Y-109370002D01*
G75*
G02*
X153145002Y-109620000I-249998J0D01*
G01*
X152619998Y-109620000D01*
G75*
G02*
X152370000Y-109370002I0J249998D01*
G01*
G37*
D12*
X160510000Y-119390000D03*
D13*
X160510000Y-122090000D03*
D14*
X160510000Y-117565000D03*
X160510000Y-124315000D03*
D15*
X157935000Y-118452500D03*
X157935000Y-123427500D03*
D16*
X157850000Y-119640000D03*
X157850000Y-120290000D03*
X157850000Y-120940000D03*
X157850000Y-121590000D03*
X157850000Y-122240000D03*
D17*
X151480000Y-136230000D03*
X150530000Y-134230000D03*
X152430000Y-134230000D03*
D10*
X148840000Y-135240000D03*
X146840000Y-136190000D03*
X146840000Y-134290000D03*
X141810000Y-135270000D03*
X139810000Y-136220000D03*
X139810000Y-134320000D03*
D18*
X142400000Y-89100000D03*
X142400000Y-91100000D03*
X142400000Y-93100000D03*
X142400000Y-95100000D03*
X142400000Y-97100000D03*
X142400000Y-99100000D03*
X142400000Y-101100000D03*
X142400000Y-103100000D03*
D19*
X145000000Y-104600000D03*
X147000000Y-104600000D03*
X149000000Y-104600000D03*
X151000000Y-104600000D03*
X153000000Y-104600000D03*
X155000000Y-104600000D03*
D18*
X157600000Y-103100000D03*
X157600000Y-101100000D03*
X157600000Y-99100000D03*
X157600000Y-97100000D03*
X157600000Y-95100000D03*
X157600000Y-93100000D03*
X157600000Y-91100000D03*
X157600000Y-89100000D03*
G36*
G01*
X160625002Y-95325000D02*
X159724998Y-95325000D01*
G75*
G02*
X159475000Y-95075002I0J249998D01*
G01*
X159475000Y-94549998D01*
G75*
G02*
X159724998Y-94300000I249998J0D01*
G01*
X160625002Y-94300000D01*
G75*
G02*
X160875000Y-94549998I0J-249998D01*
G01*
X160875000Y-95075002D01*
G75*
G02*
X160625002Y-95325000I-249998J0D01*
G01*
G37*
G36*
G01*
X160625002Y-93500000D02*
X159724998Y-93500000D01*
G75*
G02*
X159475000Y-93250002I0J249998D01*
G01*
X159475000Y-92724998D01*
G75*
G02*
X159724998Y-92475000I249998J0D01*
G01*
X160625002Y-92475000D01*
G75*
G02*
X160875000Y-92724998I0J-249998D01*
G01*
X160875000Y-93250002D01*
G75*
G02*
X160625002Y-93500000I-249998J0D01*
G01*
G37*
G36*
G01*
X140270002Y-97992500D02*
X139369998Y-97992500D01*
G75*
G02*
X139120000Y-97742502I0J249998D01*
G01*
X139120000Y-97217498D01*
G75*
G02*
X139369998Y-96967500I249998J0D01*
G01*
X140270002Y-96967500D01*
G75*
G02*
X140520000Y-97217498I0J-249998D01*
G01*
X140520000Y-97742502D01*
G75*
G02*
X140270002Y-97992500I-249998J0D01*
G01*
G37*
G36*
G01*
X140270002Y-99817500D02*
X139369998Y-99817500D01*
G75*
G02*
X139120000Y-99567502I0J249998D01*
G01*
X139120000Y-99042498D01*
G75*
G02*
X139369998Y-98792500I249998J0D01*
G01*
X140270002Y-98792500D01*
G75*
G02*
X140520000Y-99042498I0J-249998D01*
G01*
X140520000Y-99567502D01*
G75*
G02*
X140270002Y-99817500I-249998J0D01*
G01*
G37*
G36*
G01*
X159699998Y-96750000D02*
X160600002Y-96750000D01*
G75*
G02*
X160850000Y-96999998I0J-249998D01*
G01*
X160850000Y-97525002D01*
G75*
G02*
X160600002Y-97775000I-249998J0D01*
G01*
X159699998Y-97775000D01*
G75*
G02*
X159450000Y-97525002I0J249998D01*
G01*
X159450000Y-96999998D01*
G75*
G02*
X159699998Y-96750000I249998J0D01*
G01*
G37*
G36*
G01*
X159699998Y-98575000D02*
X160600002Y-98575000D01*
G75*
G02*
X160850000Y-98824998I0J-249998D01*
G01*
X160850000Y-99350002D01*
G75*
G02*
X160600002Y-99600000I-249998J0D01*
G01*
X159699998Y-99600000D01*
G75*
G02*
X159450000Y-99350002I0J249998D01*
G01*
X159450000Y-98824998D01*
G75*
G02*
X159699998Y-98575000I249998J0D01*
G01*
G37*
G36*
G01*
X160600002Y-89975000D02*
X159699998Y-89975000D01*
G75*
G02*
X159450000Y-89725002I0J249998D01*
G01*
X159450000Y-89199998D01*
G75*
G02*
X159699998Y-88950000I249998J0D01*
G01*
X160600002Y-88950000D01*
G75*
G02*
X160850000Y-89199998I0J-249998D01*
G01*
X160850000Y-89725002D01*
G75*
G02*
X160600002Y-89975000I-249998J0D01*
G01*
G37*
G36*
G01*
X160600002Y-91800000D02*
X159699998Y-91800000D01*
G75*
G02*
X159450000Y-91550002I0J249998D01*
G01*
X159450000Y-91024998D01*
G75*
G02*
X159699998Y-90775000I249998J0D01*
G01*
X160600002Y-90775000D01*
G75*
G02*
X160850000Y-91024998I0J-249998D01*
G01*
X160850000Y-91550002D01*
G75*
G02*
X160600002Y-91800000I-249998J0D01*
G01*
G37*
G36*
G01*
X143590000Y-106165000D02*
X144540000Y-106165000D01*
G75*
G02*
X144790000Y-106415000I0J-250000D01*
G01*
X144790000Y-106915000D01*
G75*
G02*
X144540000Y-107165000I-250000J0D01*
G01*
X143590000Y-107165000D01*
G75*
G02*
X143340000Y-106915000I0J250000D01*
G01*
X143340000Y-106415000D01*
G75*
G02*
X143590000Y-106165000I250000J0D01*
G01*
G37*
G36*
G01*
X143590000Y-108065000D02*
X144540000Y-108065000D01*
G75*
G02*
X144790000Y-108315000I0J-250000D01*
G01*
X144790000Y-108815000D01*
G75*
G02*
X144540000Y-109065000I-250000J0D01*
G01*
X143590000Y-109065000D01*
G75*
G02*
X143340000Y-108815000I0J250000D01*
G01*
X143340000Y-108315000D01*
G75*
G02*
X143590000Y-108065000I250000J0D01*
G01*
G37*
G36*
G01*
X141525000Y-106160000D02*
X142475000Y-106160000D01*
G75*
G02*
X142725000Y-106410000I0J-250000D01*
G01*
X142725000Y-106910000D01*
G75*
G02*
X142475000Y-107160000I-250000J0D01*
G01*
X141525000Y-107160000D01*
G75*
G02*
X141275000Y-106910000I0J250000D01*
G01*
X141275000Y-106410000D01*
G75*
G02*
X141525000Y-106160000I250000J0D01*
G01*
G37*
G36*
G01*
X141525000Y-108060000D02*
X142475000Y-108060000D01*
G75*
G02*
X142725000Y-108310000I0J-250000D01*
G01*
X142725000Y-108810000D01*
G75*
G02*
X142475000Y-109060000I-250000J0D01*
G01*
X141525000Y-109060000D01*
G75*
G02*
X141275000Y-108810000I0J250000D01*
G01*
X141275000Y-108310000D01*
G75*
G02*
X141525000Y-108060000I250000J0D01*
G01*
G37*
D17*
X148405000Y-111180000D03*
X149355000Y-113180000D03*
X147455000Y-113180000D03*
X143630000Y-113180000D03*
X141730000Y-113180000D03*
X142680000Y-115180000D03*
G36*
G01*
X140220002Y-95435000D02*
X139319998Y-95435000D01*
G75*
G02*
X139070000Y-95185002I0J249998D01*
G01*
X139070000Y-94659998D01*
G75*
G02*
X139319998Y-94410000I249998J0D01*
G01*
X140220002Y-94410000D01*
G75*
G02*
X140470000Y-94659998I0J-249998D01*
G01*
X140470000Y-95185002D01*
G75*
G02*
X140220002Y-95435000I-249998J0D01*
G01*
G37*
G36*
G01*
X140220002Y-93610000D02*
X139319998Y-93610000D01*
G75*
G02*
X139070000Y-93360002I0J249998D01*
G01*
X139070000Y-92834998D01*
G75*
G02*
X139319998Y-92585000I249998J0D01*
G01*
X140220002Y-92585000D01*
G75*
G02*
X140470000Y-92834998I0J-249998D01*
G01*
X140470000Y-93360002D01*
G75*
G02*
X140220002Y-93610000I-249998J0D01*
G01*
G37*
G36*
G01*
X148805000Y-115430002D02*
X148805000Y-114529998D01*
G75*
G02*
X149054998Y-114280000I249998J0D01*
G01*
X149580002Y-114280000D01*
G75*
G02*
X149830000Y-114529998I0J-249998D01*
G01*
X149830000Y-115430002D01*
G75*
G02*
X149580002Y-115680000I-249998J0D01*
G01*
X149054998Y-115680000D01*
G75*
G02*
X148805000Y-115430002I0J249998D01*
G01*
G37*
G36*
G01*
X146980000Y-115430002D02*
X146980000Y-114529998D01*
G75*
G02*
X147229998Y-114280000I249998J0D01*
G01*
X147755002Y-114280000D01*
G75*
G02*
X148005000Y-114529998I0J-249998D01*
G01*
X148005000Y-115430002D01*
G75*
G02*
X147755002Y-115680000I-249998J0D01*
G01*
X147229998Y-115680000D01*
G75*
G02*
X146980000Y-115430002I0J249998D01*
G01*
G37*
G36*
G01*
X143115000Y-111565002D02*
X143115000Y-110664998D01*
G75*
G02*
X143364998Y-110415000I249998J0D01*
G01*
X143890002Y-110415000D01*
G75*
G02*
X144140000Y-110664998I0J-249998D01*
G01*
X144140000Y-111565002D01*
G75*
G02*
X143890002Y-111815000I-249998J0D01*
G01*
X143364998Y-111815000D01*
G75*
G02*
X143115000Y-111565002I0J249998D01*
G01*
G37*
G36*
G01*
X144940000Y-111565002D02*
X144940000Y-110664998D01*
G75*
G02*
X145189998Y-110415000I249998J0D01*
G01*
X145715002Y-110415000D01*
G75*
G02*
X145965000Y-110664998I0J-249998D01*
G01*
X145965000Y-111565002D01*
G75*
G02*
X145715002Y-111815000I-249998J0D01*
G01*
X145189998Y-111815000D01*
G75*
G02*
X144940000Y-111565002I0J249998D01*
G01*
G37*
G36*
G01*
X145054998Y-114605000D02*
X145955002Y-114605000D01*
G75*
G02*
X146205000Y-114854998I0J-249998D01*
G01*
X146205000Y-115380002D01*
G75*
G02*
X145955002Y-115630000I-249998J0D01*
G01*
X145054998Y-115630000D01*
G75*
G02*
X144805000Y-115380002I0J249998D01*
G01*
X144805000Y-114854998D01*
G75*
G02*
X145054998Y-114605000I249998J0D01*
G01*
G37*
G36*
G01*
X145054998Y-112780000D02*
X145955002Y-112780000D01*
G75*
G02*
X146205000Y-113029998I0J-249998D01*
G01*
X146205000Y-113555002D01*
G75*
G02*
X145955002Y-113805000I-249998J0D01*
G01*
X145054998Y-113805000D01*
G75*
G02*
X144805000Y-113555002I0J249998D01*
G01*
X144805000Y-113029998D01*
G75*
G02*
X145054998Y-112780000I249998J0D01*
G01*
G37*
G36*
G01*
X141165000Y-111615002D02*
X141165000Y-110714998D01*
G75*
G02*
X141414998Y-110465000I249998J0D01*
G01*
X141940002Y-110465000D01*
G75*
G02*
X142190000Y-110714998I0J-249998D01*
G01*
X142190000Y-111615002D01*
G75*
G02*
X141940002Y-111865000I-249998J0D01*
G01*
X141414998Y-111865000D01*
G75*
G02*
X141165000Y-111615002I0J249998D01*
G01*
G37*
G36*
G01*
X139340000Y-111615002D02*
X139340000Y-110714998D01*
G75*
G02*
X139589998Y-110465000I249998J0D01*
G01*
X140115002Y-110465000D01*
G75*
G02*
X140365000Y-110714998I0J-249998D01*
G01*
X140365000Y-111615002D01*
G75*
G02*
X140115002Y-111865000I-249998J0D01*
G01*
X139589998Y-111865000D01*
G75*
G02*
X139340000Y-111615002I0J249998D01*
G01*
G37*
G36*
G01*
X139429998Y-112755000D02*
X140330002Y-112755000D01*
G75*
G02*
X140580000Y-113004998I0J-249998D01*
G01*
X140580000Y-113530002D01*
G75*
G02*
X140330002Y-113780000I-249998J0D01*
G01*
X139429998Y-113780000D01*
G75*
G02*
X139180000Y-113530002I0J249998D01*
G01*
X139180000Y-113004998D01*
G75*
G02*
X139429998Y-112755000I249998J0D01*
G01*
G37*
G36*
G01*
X139429998Y-114580000D02*
X140330002Y-114580000D01*
G75*
G02*
X140580000Y-114829998I0J-249998D01*
G01*
X140580000Y-115355002D01*
G75*
G02*
X140330002Y-115605000I-249998J0D01*
G01*
X139429998Y-115605000D01*
G75*
G02*
X139180000Y-115355002I0J249998D01*
G01*
X139180000Y-114829998D01*
G75*
G02*
X139429998Y-114580000I249998J0D01*
G01*
G37*
G36*
G01*
X159699998Y-102450000D02*
X160600002Y-102450000D01*
G75*
G02*
X160850000Y-102699998I0J-249998D01*
G01*
X160850000Y-103225002D01*
G75*
G02*
X160600002Y-103475000I-249998J0D01*
G01*
X159699998Y-103475000D01*
G75*
G02*
X159450000Y-103225002I0J249998D01*
G01*
X159450000Y-102699998D01*
G75*
G02*
X159699998Y-102450000I249998J0D01*
G01*
G37*
G36*
G01*
X159699998Y-100625000D02*
X160600002Y-100625000D01*
G75*
G02*
X160850000Y-100874998I0J-249998D01*
G01*
X160850000Y-101400002D01*
G75*
G02*
X160600002Y-101650000I-249998J0D01*
G01*
X159699998Y-101650000D01*
G75*
G02*
X159450000Y-101400002I0J249998D01*
G01*
X159450000Y-100874998D01*
G75*
G02*
X159699998Y-100625000I249998J0D01*
G01*
G37*
G36*
G01*
X145425000Y-109520002D02*
X145425000Y-108619998D01*
G75*
G02*
X145674998Y-108370000I249998J0D01*
G01*
X146200002Y-108370000D01*
G75*
G02*
X146450000Y-108619998I0J-249998D01*
G01*
X146450000Y-109520002D01*
G75*
G02*
X146200002Y-109770000I-249998J0D01*
G01*
X145674998Y-109770000D01*
G75*
G02*
X145425000Y-109520002I0J249998D01*
G01*
G37*
G36*
G01*
X147250000Y-109520002D02*
X147250000Y-108619998D01*
G75*
G02*
X147499998Y-108370000I249998J0D01*
G01*
X148025002Y-108370000D01*
G75*
G02*
X148275000Y-108619998I0J-249998D01*
G01*
X148275000Y-109520002D01*
G75*
G02*
X148025002Y-109770000I-249998J0D01*
G01*
X147499998Y-109770000D01*
G75*
G02*
X147250000Y-109520002I0J249998D01*
G01*
G37*
G36*
G01*
X145425000Y-107490002D02*
X145425000Y-106589998D01*
G75*
G02*
X145674998Y-106340000I249998J0D01*
G01*
X146200002Y-106340000D01*
G75*
G02*
X146450000Y-106589998I0J-249998D01*
G01*
X146450000Y-107490002D01*
G75*
G02*
X146200002Y-107740000I-249998J0D01*
G01*
X145674998Y-107740000D01*
G75*
G02*
X145425000Y-107490002I0J249998D01*
G01*
G37*
G36*
G01*
X147250000Y-107490002D02*
X147250000Y-106589998D01*
G75*
G02*
X147499998Y-106340000I249998J0D01*
G01*
X148025002Y-106340000D01*
G75*
G02*
X148275000Y-106589998I0J-249998D01*
G01*
X148275000Y-107490002D01*
G75*
G02*
X148025002Y-107740000I-249998J0D01*
G01*
X147499998Y-107740000D01*
G75*
G02*
X147250000Y-107490002I0J249998D01*
G01*
G37*
M02*
