G04 #@! TF.GenerationSoftware,KiCad,Pcbnew,5.1.8*
G04 #@! TF.CreationDate,2020-12-10T12:55:43+01:00*
G04 #@! TF.ProjectId,weather_station,77656174-6865-4725-9f73-746174696f6e,rev?*
G04 #@! TF.SameCoordinates,Original*
G04 #@! TF.FileFunction,Legend,Top*
G04 #@! TF.FilePolarity,Positive*
%FSLAX46Y46*%
G04 Gerber Fmt 4.6, Leading zero omitted, Abs format (unit mm)*
G04 Created by KiCad (PCBNEW 5.1.8) date 2020-12-10 12:55:43*
%MOMM*%
%LPD*%
G01*
G04 APERTURE LIST*
%ADD10C,0.010000*%
%ADD11C,0.120000*%
G04 APERTURE END LIST*
D10*
G36*
X150910835Y-120760957D02*
G01*
X150948245Y-120737935D01*
X151007514Y-120702466D01*
X151086118Y-120656004D01*
X151181538Y-120600004D01*
X151291250Y-120535919D01*
X151412734Y-120465204D01*
X151543468Y-120389313D01*
X151680930Y-120309701D01*
X151822598Y-120227822D01*
X151965951Y-120145130D01*
X152108467Y-120063079D01*
X152247624Y-119983124D01*
X152380901Y-119906719D01*
X152505776Y-119835318D01*
X152619727Y-119770376D01*
X152720233Y-119713347D01*
X152804772Y-119665685D01*
X152870822Y-119628845D01*
X152915862Y-119604280D01*
X152937370Y-119593446D01*
X152938714Y-119593049D01*
X152956965Y-119606499D01*
X152984882Y-119643886D01*
X153019725Y-119700765D01*
X153058754Y-119772688D01*
X153095843Y-119847985D01*
X153140817Y-119950440D01*
X153181226Y-120058183D01*
X153217969Y-120174927D01*
X153251942Y-120304382D01*
X153284044Y-120450260D01*
X153315173Y-120616274D01*
X153346227Y-120806134D01*
X153375145Y-121002531D01*
X153400800Y-121173166D01*
X153426198Y-121316455D01*
X153452602Y-121435992D01*
X153481273Y-121535370D01*
X153513473Y-121618182D01*
X153550465Y-121688022D01*
X153593512Y-121748482D01*
X153643875Y-121803155D01*
X153662583Y-121820786D01*
X153706139Y-121859000D01*
X153741682Y-121887268D01*
X153762583Y-121900382D01*
X153764297Y-121900732D01*
X153774806Y-121905320D01*
X153774924Y-121921242D01*
X153763254Y-121951734D01*
X153738396Y-122000032D01*
X153698952Y-122069373D01*
X153670587Y-122117561D01*
X153626247Y-122189417D01*
X153588279Y-122245258D01*
X153559416Y-122281333D01*
X153542388Y-122293887D01*
X153542264Y-122293879D01*
X153526037Y-122286094D01*
X153485400Y-122264108D01*
X153422567Y-122229197D01*
X153339752Y-122182637D01*
X153239172Y-122125705D01*
X153123040Y-122059677D01*
X152993571Y-121985828D01*
X152852980Y-121905436D01*
X152703482Y-121819776D01*
X152547292Y-121730124D01*
X152386624Y-121637757D01*
X152223693Y-121543951D01*
X152060713Y-121449982D01*
X151899900Y-121357126D01*
X151743468Y-121266660D01*
X151593633Y-121179859D01*
X151452608Y-121098000D01*
X151322609Y-121022359D01*
X151205849Y-120954213D01*
X151104545Y-120894837D01*
X151020911Y-120845507D01*
X150957162Y-120807500D01*
X150915511Y-120782093D01*
X150898175Y-120770560D01*
X150897805Y-120770077D01*
X150910835Y-120760957D01*
G37*
X150910835Y-120760957D02*
X150948245Y-120737935D01*
X151007514Y-120702466D01*
X151086118Y-120656004D01*
X151181538Y-120600004D01*
X151291250Y-120535919D01*
X151412734Y-120465204D01*
X151543468Y-120389313D01*
X151680930Y-120309701D01*
X151822598Y-120227822D01*
X151965951Y-120145130D01*
X152108467Y-120063079D01*
X152247624Y-119983124D01*
X152380901Y-119906719D01*
X152505776Y-119835318D01*
X152619727Y-119770376D01*
X152720233Y-119713347D01*
X152804772Y-119665685D01*
X152870822Y-119628845D01*
X152915862Y-119604280D01*
X152937370Y-119593446D01*
X152938714Y-119593049D01*
X152956965Y-119606499D01*
X152984882Y-119643886D01*
X153019725Y-119700765D01*
X153058754Y-119772688D01*
X153095843Y-119847985D01*
X153140817Y-119950440D01*
X153181226Y-120058183D01*
X153217969Y-120174927D01*
X153251942Y-120304382D01*
X153284044Y-120450260D01*
X153315173Y-120616274D01*
X153346227Y-120806134D01*
X153375145Y-121002531D01*
X153400800Y-121173166D01*
X153426198Y-121316455D01*
X153452602Y-121435992D01*
X153481273Y-121535370D01*
X153513473Y-121618182D01*
X153550465Y-121688022D01*
X153593512Y-121748482D01*
X153643875Y-121803155D01*
X153662583Y-121820786D01*
X153706139Y-121859000D01*
X153741682Y-121887268D01*
X153762583Y-121900382D01*
X153764297Y-121900732D01*
X153774806Y-121905320D01*
X153774924Y-121921242D01*
X153763254Y-121951734D01*
X153738396Y-122000032D01*
X153698952Y-122069373D01*
X153670587Y-122117561D01*
X153626247Y-122189417D01*
X153588279Y-122245258D01*
X153559416Y-122281333D01*
X153542388Y-122293887D01*
X153542264Y-122293879D01*
X153526037Y-122286094D01*
X153485400Y-122264108D01*
X153422567Y-122229197D01*
X153339752Y-122182637D01*
X153239172Y-122125705D01*
X153123040Y-122059677D01*
X152993571Y-121985828D01*
X152852980Y-121905436D01*
X152703482Y-121819776D01*
X152547292Y-121730124D01*
X152386624Y-121637757D01*
X152223693Y-121543951D01*
X152060713Y-121449982D01*
X151899900Y-121357126D01*
X151743468Y-121266660D01*
X151593633Y-121179859D01*
X151452608Y-121098000D01*
X151322609Y-121022359D01*
X151205849Y-120954213D01*
X151104545Y-120894837D01*
X151020911Y-120845507D01*
X150957162Y-120807500D01*
X150915511Y-120782093D01*
X150898175Y-120770560D01*
X150897805Y-120770077D01*
X150910835Y-120760957D01*
G36*
X154059619Y-118937472D02*
G01*
X154078693Y-118926092D01*
X154122421Y-118900512D01*
X154188619Y-118861998D01*
X154275102Y-118811814D01*
X154379685Y-118751225D01*
X154500183Y-118681497D01*
X154634412Y-118603893D01*
X154780187Y-118519680D01*
X154935323Y-118430121D01*
X155095000Y-118338002D01*
X155258117Y-118243924D01*
X155414709Y-118153598D01*
X155562506Y-118068335D01*
X155699240Y-117989443D01*
X155822642Y-117918231D01*
X155930444Y-117856009D01*
X156020377Y-117804087D01*
X156090173Y-117763772D01*
X156137564Y-117736376D01*
X156159786Y-117723493D01*
X156197330Y-117702493D01*
X156220831Y-117691075D01*
X156224920Y-117690449D01*
X156217242Y-117704364D01*
X156195203Y-117743059D01*
X156159971Y-117804513D01*
X156112711Y-117886702D01*
X156054589Y-117987604D01*
X155986771Y-118105195D01*
X155910424Y-118237454D01*
X155826714Y-118382358D01*
X155736806Y-118537883D01*
X155641867Y-118702008D01*
X155605732Y-118764451D01*
X155509083Y-118931513D01*
X155416938Y-119090926D01*
X155330475Y-119240645D01*
X155250871Y-119378624D01*
X155179305Y-119502815D01*
X155116955Y-119611173D01*
X155064998Y-119701652D01*
X155024613Y-119772204D01*
X154996978Y-119820785D01*
X154983272Y-119845346D01*
X154981974Y-119847915D01*
X154970220Y-119840431D01*
X154938795Y-119814386D01*
X154890594Y-119772441D01*
X154828510Y-119717254D01*
X154755439Y-119651483D01*
X154674276Y-119577788D01*
X154587916Y-119498827D01*
X154499253Y-119417260D01*
X154411182Y-119335746D01*
X154326599Y-119256943D01*
X154248397Y-119183510D01*
X154179472Y-119118107D01*
X154122719Y-119063392D01*
X154081032Y-119022023D01*
X154067363Y-119007836D01*
X154023201Y-118960820D01*
X154059619Y-118937472D01*
G37*
X154059619Y-118937472D02*
X154078693Y-118926092D01*
X154122421Y-118900512D01*
X154188619Y-118861998D01*
X154275102Y-118811814D01*
X154379685Y-118751225D01*
X154500183Y-118681497D01*
X154634412Y-118603893D01*
X154780187Y-118519680D01*
X154935323Y-118430121D01*
X155095000Y-118338002D01*
X155258117Y-118243924D01*
X155414709Y-118153598D01*
X155562506Y-118068335D01*
X155699240Y-117989443D01*
X155822642Y-117918231D01*
X155930444Y-117856009D01*
X156020377Y-117804087D01*
X156090173Y-117763772D01*
X156137564Y-117736376D01*
X156159786Y-117723493D01*
X156197330Y-117702493D01*
X156220831Y-117691075D01*
X156224920Y-117690449D01*
X156217242Y-117704364D01*
X156195203Y-117743059D01*
X156159971Y-117804513D01*
X156112711Y-117886702D01*
X156054589Y-117987604D01*
X155986771Y-118105195D01*
X155910424Y-118237454D01*
X155826714Y-118382358D01*
X155736806Y-118537883D01*
X155641867Y-118702008D01*
X155605732Y-118764451D01*
X155509083Y-118931513D01*
X155416938Y-119090926D01*
X155330475Y-119240645D01*
X155250871Y-119378624D01*
X155179305Y-119502815D01*
X155116955Y-119611173D01*
X155064998Y-119701652D01*
X155024613Y-119772204D01*
X154996978Y-119820785D01*
X154983272Y-119845346D01*
X154981974Y-119847915D01*
X154970220Y-119840431D01*
X154938795Y-119814386D01*
X154890594Y-119772441D01*
X154828510Y-119717254D01*
X154755439Y-119651483D01*
X154674276Y-119577788D01*
X154587916Y-119498827D01*
X154499253Y-119417260D01*
X154411182Y-119335746D01*
X154326599Y-119256943D01*
X154248397Y-119183510D01*
X154179472Y-119118107D01*
X154122719Y-119063392D01*
X154081032Y-119022023D01*
X154067363Y-119007836D01*
X154023201Y-118960820D01*
X154059619Y-118937472D01*
G36*
X154116158Y-122602906D02*
G01*
X154128736Y-122570381D01*
X154153712Y-122520807D01*
X154192876Y-122449626D01*
X154195988Y-122444084D01*
X154233476Y-122378526D01*
X154266319Y-122323202D01*
X154291205Y-122283545D01*
X154304820Y-122264988D01*
X154305487Y-122264469D01*
X154324390Y-122268952D01*
X154366605Y-122289514D01*
X154429832Y-122324817D01*
X154511772Y-122373520D01*
X154610122Y-122434282D01*
X154722585Y-122505764D01*
X154750165Y-122523555D01*
X154826699Y-122569907D01*
X154892556Y-122603658D01*
X154941782Y-122621847D01*
X154951507Y-122623714D01*
X154994312Y-122622885D01*
X155062209Y-122613606D01*
X155150843Y-122597032D01*
X155255859Y-122574320D01*
X155372902Y-122546627D01*
X155497616Y-122515110D01*
X155625645Y-122480925D01*
X155752634Y-122445229D01*
X155874228Y-122409179D01*
X155986072Y-122373932D01*
X156083810Y-122340644D01*
X156163087Y-122310472D01*
X156210122Y-122289439D01*
X156260225Y-122264663D01*
X156308168Y-122241270D01*
X156310793Y-122240003D01*
X156359220Y-122201301D01*
X156391828Y-122144816D01*
X156407454Y-122079061D01*
X156404937Y-122012549D01*
X156383114Y-121953795D01*
X156354382Y-121920742D01*
X156275583Y-121873141D01*
X156177378Y-121838261D01*
X156069779Y-121819123D01*
X156008780Y-121816412D01*
X155894935Y-121827330D01*
X155800660Y-121859376D01*
X155721379Y-121914274D01*
X155703733Y-121931393D01*
X155654235Y-121982339D01*
X155304362Y-121985837D01*
X154954489Y-121989336D01*
X154819531Y-121900182D01*
X154758445Y-121858346D01*
X154703493Y-121818055D01*
X154662336Y-121785057D01*
X154647192Y-121770874D01*
X154609810Y-121730719D01*
X154639098Y-121676335D01*
X154660084Y-121641961D01*
X154676378Y-121623154D01*
X154679307Y-121621951D01*
X154691728Y-121609097D01*
X154700977Y-121587104D01*
X154709313Y-121565850D01*
X154725149Y-121533306D01*
X154750033Y-121486678D01*
X154785509Y-121423171D01*
X154833123Y-121339992D01*
X154894422Y-121234347D01*
X154927932Y-121176938D01*
X154968071Y-121109406D01*
X154996659Y-121065115D01*
X155017039Y-121040145D01*
X155032553Y-121030577D01*
X155046546Y-121032492D01*
X155049796Y-121034089D01*
X155070266Y-121049624D01*
X155108665Y-121082864D01*
X155160696Y-121129938D01*
X155222066Y-121186972D01*
X155274090Y-121236300D01*
X155397567Y-121349970D01*
X155504591Y-121438895D01*
X155596240Y-121503866D01*
X155673588Y-121545679D01*
X155712866Y-121559783D01*
X155747249Y-121565608D01*
X155805899Y-121571625D01*
X155882117Y-121577304D01*
X155969202Y-121582116D01*
X156024268Y-121584381D01*
X156119464Y-121587541D01*
X156189062Y-121588931D01*
X156238409Y-121588142D01*
X156272854Y-121584765D01*
X156297743Y-121578392D01*
X156318425Y-121568613D01*
X156331053Y-121560933D01*
X156379726Y-121516579D01*
X156413645Y-121459426D01*
X156428438Y-121399292D01*
X156423086Y-121354227D01*
X156399930Y-121313424D01*
X156358462Y-121262276D01*
X156305912Y-121207958D01*
X156249516Y-121157643D01*
X156196505Y-121118506D01*
X156170889Y-121104095D01*
X156135814Y-121082509D01*
X156082389Y-121043247D01*
X156014789Y-120989898D01*
X155937190Y-120926048D01*
X155853768Y-120855285D01*
X155768698Y-120781196D01*
X155686155Y-120707368D01*
X155610316Y-120637389D01*
X155545356Y-120574845D01*
X155497669Y-120525740D01*
X155450032Y-120471221D01*
X155414908Y-120425358D01*
X155395949Y-120393189D01*
X155393864Y-120382511D01*
X155402274Y-120366147D01*
X155424846Y-120325329D01*
X155460224Y-120262414D01*
X155507054Y-120179756D01*
X155563981Y-120079711D01*
X155629649Y-119964634D01*
X155702703Y-119836881D01*
X155781788Y-119698806D01*
X155865548Y-119552766D01*
X155952629Y-119401116D01*
X156041676Y-119246210D01*
X156131332Y-119090405D01*
X156220243Y-118936056D01*
X156307054Y-118785518D01*
X156390409Y-118641146D01*
X156468954Y-118505296D01*
X156541333Y-118380323D01*
X156606190Y-118268583D01*
X156662171Y-118172430D01*
X156707920Y-118094221D01*
X156742083Y-118036311D01*
X156763304Y-118001054D01*
X156769963Y-117990835D01*
X156771280Y-118004598D01*
X156772559Y-118047896D01*
X156773796Y-118119286D01*
X156774983Y-118217327D01*
X156776115Y-118340578D01*
X156777186Y-118487597D01*
X156778189Y-118656943D01*
X156779119Y-118847174D01*
X156779968Y-119056849D01*
X156780732Y-119284527D01*
X156781403Y-119528765D01*
X156781976Y-119788123D01*
X156782444Y-120061159D01*
X156782802Y-120346432D01*
X156783042Y-120642500D01*
X156783159Y-120947921D01*
X156783171Y-121076076D01*
X156783171Y-124176030D01*
X156399847Y-123954947D01*
X156318680Y-123908144D01*
X156214166Y-123847898D01*
X156089801Y-123776222D01*
X155949082Y-123695131D01*
X155795503Y-123606638D01*
X155632562Y-123512760D01*
X155463754Y-123415509D01*
X155292575Y-123316900D01*
X155122521Y-123218947D01*
X155079512Y-123194175D01*
X154922857Y-123103848D01*
X154773803Y-123017711D01*
X154634568Y-122937058D01*
X154507371Y-122863184D01*
X154394432Y-122797383D01*
X154297968Y-122740950D01*
X154220200Y-122695179D01*
X154163346Y-122661365D01*
X154129625Y-122640802D01*
X154121040Y-122635047D01*
X154114189Y-122622942D01*
X154116158Y-122602906D01*
G37*
X154116158Y-122602906D02*
X154128736Y-122570381D01*
X154153712Y-122520807D01*
X154192876Y-122449626D01*
X154195988Y-122444084D01*
X154233476Y-122378526D01*
X154266319Y-122323202D01*
X154291205Y-122283545D01*
X154304820Y-122264988D01*
X154305487Y-122264469D01*
X154324390Y-122268952D01*
X154366605Y-122289514D01*
X154429832Y-122324817D01*
X154511772Y-122373520D01*
X154610122Y-122434282D01*
X154722585Y-122505764D01*
X154750165Y-122523555D01*
X154826699Y-122569907D01*
X154892556Y-122603658D01*
X154941782Y-122621847D01*
X154951507Y-122623714D01*
X154994312Y-122622885D01*
X155062209Y-122613606D01*
X155150843Y-122597032D01*
X155255859Y-122574320D01*
X155372902Y-122546627D01*
X155497616Y-122515110D01*
X155625645Y-122480925D01*
X155752634Y-122445229D01*
X155874228Y-122409179D01*
X155986072Y-122373932D01*
X156083810Y-122340644D01*
X156163087Y-122310472D01*
X156210122Y-122289439D01*
X156260225Y-122264663D01*
X156308168Y-122241270D01*
X156310793Y-122240003D01*
X156359220Y-122201301D01*
X156391828Y-122144816D01*
X156407454Y-122079061D01*
X156404937Y-122012549D01*
X156383114Y-121953795D01*
X156354382Y-121920742D01*
X156275583Y-121873141D01*
X156177378Y-121838261D01*
X156069779Y-121819123D01*
X156008780Y-121816412D01*
X155894935Y-121827330D01*
X155800660Y-121859376D01*
X155721379Y-121914274D01*
X155703733Y-121931393D01*
X155654235Y-121982339D01*
X155304362Y-121985837D01*
X154954489Y-121989336D01*
X154819531Y-121900182D01*
X154758445Y-121858346D01*
X154703493Y-121818055D01*
X154662336Y-121785057D01*
X154647192Y-121770874D01*
X154609810Y-121730719D01*
X154639098Y-121676335D01*
X154660084Y-121641961D01*
X154676378Y-121623154D01*
X154679307Y-121621951D01*
X154691728Y-121609097D01*
X154700977Y-121587104D01*
X154709313Y-121565850D01*
X154725149Y-121533306D01*
X154750033Y-121486678D01*
X154785509Y-121423171D01*
X154833123Y-121339992D01*
X154894422Y-121234347D01*
X154927932Y-121176938D01*
X154968071Y-121109406D01*
X154996659Y-121065115D01*
X155017039Y-121040145D01*
X155032553Y-121030577D01*
X155046546Y-121032492D01*
X155049796Y-121034089D01*
X155070266Y-121049624D01*
X155108665Y-121082864D01*
X155160696Y-121129938D01*
X155222066Y-121186972D01*
X155274090Y-121236300D01*
X155397567Y-121349970D01*
X155504591Y-121438895D01*
X155596240Y-121503866D01*
X155673588Y-121545679D01*
X155712866Y-121559783D01*
X155747249Y-121565608D01*
X155805899Y-121571625D01*
X155882117Y-121577304D01*
X155969202Y-121582116D01*
X156024268Y-121584381D01*
X156119464Y-121587541D01*
X156189062Y-121588931D01*
X156238409Y-121588142D01*
X156272854Y-121584765D01*
X156297743Y-121578392D01*
X156318425Y-121568613D01*
X156331053Y-121560933D01*
X156379726Y-121516579D01*
X156413645Y-121459426D01*
X156428438Y-121399292D01*
X156423086Y-121354227D01*
X156399930Y-121313424D01*
X156358462Y-121262276D01*
X156305912Y-121207958D01*
X156249516Y-121157643D01*
X156196505Y-121118506D01*
X156170889Y-121104095D01*
X156135814Y-121082509D01*
X156082389Y-121043247D01*
X156014789Y-120989898D01*
X155937190Y-120926048D01*
X155853768Y-120855285D01*
X155768698Y-120781196D01*
X155686155Y-120707368D01*
X155610316Y-120637389D01*
X155545356Y-120574845D01*
X155497669Y-120525740D01*
X155450032Y-120471221D01*
X155414908Y-120425358D01*
X155395949Y-120393189D01*
X155393864Y-120382511D01*
X155402274Y-120366147D01*
X155424846Y-120325329D01*
X155460224Y-120262414D01*
X155507054Y-120179756D01*
X155563981Y-120079711D01*
X155629649Y-119964634D01*
X155702703Y-119836881D01*
X155781788Y-119698806D01*
X155865548Y-119552766D01*
X155952629Y-119401116D01*
X156041676Y-119246210D01*
X156131332Y-119090405D01*
X156220243Y-118936056D01*
X156307054Y-118785518D01*
X156390409Y-118641146D01*
X156468954Y-118505296D01*
X156541333Y-118380323D01*
X156606190Y-118268583D01*
X156662171Y-118172430D01*
X156707920Y-118094221D01*
X156742083Y-118036311D01*
X156763304Y-118001054D01*
X156769963Y-117990835D01*
X156771280Y-118004598D01*
X156772559Y-118047896D01*
X156773796Y-118119286D01*
X156774983Y-118217327D01*
X156776115Y-118340578D01*
X156777186Y-118487597D01*
X156778189Y-118656943D01*
X156779119Y-118847174D01*
X156779968Y-119056849D01*
X156780732Y-119284527D01*
X156781403Y-119528765D01*
X156781976Y-119788123D01*
X156782444Y-120061159D01*
X156782802Y-120346432D01*
X156783042Y-120642500D01*
X156783159Y-120947921D01*
X156783171Y-121076076D01*
X156783171Y-124176030D01*
X156399847Y-123954947D01*
X156318680Y-123908144D01*
X156214166Y-123847898D01*
X156089801Y-123776222D01*
X155949082Y-123695131D01*
X155795503Y-123606638D01*
X155632562Y-123512760D01*
X155463754Y-123415509D01*
X155292575Y-123316900D01*
X155122521Y-123218947D01*
X155079512Y-123194175D01*
X154922857Y-123103848D01*
X154773803Y-123017711D01*
X154634568Y-122937058D01*
X154507371Y-122863184D01*
X154394432Y-122797383D01*
X154297968Y-122740950D01*
X154220200Y-122695179D01*
X154163346Y-122661365D01*
X154129625Y-122640802D01*
X154121040Y-122635047D01*
X154114189Y-122622942D01*
X154116158Y-122602906D01*
G36*
X154717348Y-111396090D02*
G01*
X154717778Y-111317546D01*
X154718942Y-111260702D01*
X154721207Y-111221895D01*
X154724940Y-111197462D01*
X154730506Y-111183738D01*
X154738273Y-111177060D01*
X154748605Y-111173764D01*
X154749943Y-111173444D01*
X154774079Y-111168438D01*
X154821701Y-111159171D01*
X154887741Y-111146608D01*
X154967128Y-111131713D01*
X155054796Y-111115449D01*
X155057875Y-111114881D01*
X155143789Y-111098590D01*
X155219696Y-111083348D01*
X155281045Y-111070139D01*
X155323282Y-111059946D01*
X155341855Y-111053752D01*
X155342184Y-111053457D01*
X155351253Y-111035212D01*
X155366367Y-110997595D01*
X155384262Y-110948729D01*
X155384358Y-110948457D01*
X155407493Y-110886907D01*
X155436965Y-110814343D01*
X155466597Y-110745943D01*
X155468062Y-110742706D01*
X155518626Y-110631298D01*
X155350160Y-110384601D01*
X155298803Y-110308923D01*
X155252889Y-110240369D01*
X155215030Y-110182912D01*
X155187837Y-110140524D01*
X155173921Y-110117175D01*
X155172889Y-110114958D01*
X155177484Y-110097990D01*
X155199655Y-110066299D01*
X155240447Y-110018648D01*
X155300905Y-109953802D01*
X155365227Y-109887603D01*
X155428612Y-109823786D01*
X155486451Y-109766671D01*
X155535175Y-109719695D01*
X155571210Y-109686297D01*
X155590984Y-109669915D01*
X155592002Y-109669306D01*
X155605572Y-109667495D01*
X155627733Y-109674317D01*
X155661478Y-109691460D01*
X155709800Y-109720607D01*
X155775692Y-109763445D01*
X155860517Y-109820552D01*
X155935177Y-109871234D01*
X156002140Y-109916539D01*
X156057516Y-109953850D01*
X156097420Y-109980548D01*
X156117962Y-109994015D01*
X156119356Y-109994863D01*
X156139038Y-109993219D01*
X156177293Y-109980755D01*
X156226889Y-109959952D01*
X156242728Y-109952538D01*
X156313290Y-109920186D01*
X156393353Y-109885672D01*
X156462629Y-109857635D01*
X156514045Y-109837432D01*
X156553119Y-109821385D01*
X156573541Y-109812112D01*
X156575114Y-109810959D01*
X156577721Y-109793904D01*
X156584863Y-109753702D01*
X156595523Y-109695698D01*
X156608685Y-109625237D01*
X156623333Y-109547665D01*
X156638449Y-109468328D01*
X156653018Y-109392569D01*
X156666022Y-109325736D01*
X156676445Y-109273172D01*
X156683270Y-109240224D01*
X156685199Y-109232143D01*
X156689962Y-109223795D01*
X156700718Y-109217494D01*
X156721098Y-109212955D01*
X156754734Y-109209896D01*
X156805255Y-109208033D01*
X156876292Y-109207082D01*
X156971476Y-109206760D01*
X157010492Y-109206743D01*
X157327799Y-109206743D01*
X157342839Y-109282943D01*
X157350995Y-109325337D01*
X157362899Y-109388600D01*
X157377116Y-109465038D01*
X157392210Y-109546957D01*
X157396355Y-109569600D01*
X157411053Y-109645194D01*
X157425505Y-109711047D01*
X157438375Y-109761634D01*
X157448322Y-109791426D01*
X157451287Y-109796388D01*
X157472283Y-109808574D01*
X157512967Y-109826047D01*
X157565322Y-109845423D01*
X157576600Y-109849266D01*
X157646523Y-109874661D01*
X157725418Y-109906183D01*
X157796266Y-109937031D01*
X157796595Y-109937183D01*
X157907733Y-109988553D01*
X158156253Y-109819601D01*
X158404772Y-109650648D01*
X158622058Y-109867571D01*
X158686726Y-109933181D01*
X158743733Y-109993021D01*
X158790033Y-110043733D01*
X158822584Y-110081954D01*
X158838343Y-110104325D01*
X158839343Y-110107534D01*
X158831469Y-110126374D01*
X158809578Y-110164820D01*
X158776267Y-110218670D01*
X158734131Y-110283724D01*
X158686943Y-110354060D01*
X158638810Y-110425445D01*
X158596928Y-110489092D01*
X158563871Y-110540959D01*
X158542218Y-110577005D01*
X158534543Y-110593133D01*
X158541037Y-110612811D01*
X158558150Y-110650125D01*
X158582326Y-110697379D01*
X158585013Y-110702388D01*
X158616927Y-110766023D01*
X158632579Y-110809659D01*
X158632745Y-110836798D01*
X158618204Y-110850943D01*
X158618000Y-110851025D01*
X158600779Y-110858095D01*
X158559899Y-110874958D01*
X158498525Y-110900305D01*
X158419819Y-110932829D01*
X158326947Y-110971222D01*
X158223072Y-111014178D01*
X158122502Y-111055778D01*
X158011516Y-111101496D01*
X157908703Y-111143474D01*
X157817215Y-111180452D01*
X157740201Y-111211173D01*
X157680815Y-111234378D01*
X157642209Y-111248810D01*
X157627800Y-111253257D01*
X157611272Y-111242104D01*
X157584930Y-111212931D01*
X157555887Y-111174029D01*
X157464039Y-111063243D01*
X157358759Y-110976649D01*
X157242266Y-110915284D01*
X157116776Y-110880185D01*
X156984507Y-110872392D01*
X156923457Y-110878057D01*
X156796795Y-110908922D01*
X156684941Y-110962080D01*
X156589001Y-111034233D01*
X156510076Y-111122083D01*
X156449270Y-111222335D01*
X156407687Y-111331690D01*
X156386428Y-111446853D01*
X156386599Y-111564525D01*
X156409301Y-111681410D01*
X156455638Y-111794211D01*
X156526713Y-111899631D01*
X156566911Y-111943632D01*
X156670129Y-112028021D01*
X156782925Y-112086778D01*
X156902010Y-112120296D01*
X157024095Y-112128965D01*
X157145893Y-112113177D01*
X157264116Y-112073322D01*
X157375475Y-112009793D01*
X157476684Y-111922979D01*
X157555887Y-111825971D01*
X157586162Y-111785563D01*
X157612219Y-111757018D01*
X157627825Y-111746743D01*
X157644843Y-111752123D01*
X157685500Y-111767425D01*
X157746642Y-111791388D01*
X157825119Y-111822756D01*
X157917780Y-111860268D01*
X158021472Y-111902667D01*
X158122526Y-111944337D01*
X158233607Y-111990310D01*
X158336541Y-112032893D01*
X158428165Y-112070779D01*
X158505316Y-112102660D01*
X158564831Y-112127229D01*
X158603544Y-112143180D01*
X158618000Y-112149090D01*
X158632685Y-112163052D01*
X158632642Y-112190060D01*
X158617099Y-112233587D01*
X158585284Y-112297110D01*
X158585013Y-112297612D01*
X158560323Y-112345440D01*
X158542338Y-112384103D01*
X158534614Y-112405905D01*
X158534543Y-112406867D01*
X158542378Y-112423279D01*
X158564165Y-112459513D01*
X158597328Y-112511526D01*
X158639291Y-112575275D01*
X158686943Y-112645940D01*
X158735191Y-112717884D01*
X158777151Y-112782726D01*
X158810227Y-112836265D01*
X158831821Y-112874303D01*
X158839343Y-112892467D01*
X158829457Y-112909192D01*
X158801826Y-112942820D01*
X158759495Y-112989990D01*
X158705505Y-113047342D01*
X158642899Y-113111516D01*
X158621983Y-113132503D01*
X158404623Y-113349501D01*
X158162220Y-113184332D01*
X158087781Y-113134136D01*
X158020972Y-113090081D01*
X157965665Y-113054638D01*
X157925729Y-113030281D01*
X157905036Y-113019478D01*
X157903563Y-113019162D01*
X157884058Y-113024857D01*
X157844822Y-113040174D01*
X157792430Y-113062463D01*
X157757355Y-113078107D01*
X157690201Y-113107359D01*
X157622358Y-113134906D01*
X157565034Y-113156263D01*
X157547572Y-113162065D01*
X157500938Y-113178548D01*
X157464905Y-113194660D01*
X157451287Y-113203510D01*
X157442952Y-113223040D01*
X157431137Y-113265666D01*
X157417181Y-113325855D01*
X157402422Y-113398078D01*
X157396355Y-113430400D01*
X157381273Y-113512478D01*
X157366669Y-113591205D01*
X157353980Y-113658891D01*
X157344642Y-113707840D01*
X157342839Y-113717057D01*
X157327799Y-113793257D01*
X157010492Y-113793257D01*
X156906154Y-113793086D01*
X156827213Y-113792384D01*
X156770038Y-113790866D01*
X156730999Y-113788251D01*
X156706465Y-113784254D01*
X156692805Y-113778591D01*
X156686389Y-113770980D01*
X156685199Y-113767857D01*
X156680980Y-113749022D01*
X156672562Y-113707412D01*
X156660961Y-113648370D01*
X156647195Y-113577243D01*
X156632280Y-113499375D01*
X156617232Y-113420113D01*
X156603069Y-113344802D01*
X156590806Y-113278787D01*
X156581461Y-113227413D01*
X156576050Y-113196025D01*
X156575114Y-113189041D01*
X156562596Y-113182715D01*
X156529246Y-113168710D01*
X156481377Y-113149645D01*
X156462629Y-113142366D01*
X156390195Y-113113004D01*
X156310170Y-113078429D01*
X156242728Y-113047463D01*
X156191159Y-113024677D01*
X156148785Y-113009518D01*
X156122834Y-113004458D01*
X156119356Y-113005264D01*
X156102936Y-113015959D01*
X156066417Y-113040380D01*
X156013687Y-113075905D01*
X155948635Y-113119913D01*
X155875151Y-113169783D01*
X155860645Y-113179644D01*
X155774704Y-113237508D01*
X155709261Y-113280044D01*
X155661304Y-113308946D01*
X155627820Y-113325910D01*
X155605795Y-113332633D01*
X155592217Y-113330810D01*
X155592131Y-113330764D01*
X155574297Y-113316414D01*
X155539817Y-113284677D01*
X155492268Y-113238990D01*
X155435222Y-113182796D01*
X155372255Y-113119532D01*
X155365227Y-113112398D01*
X155288020Y-113032670D01*
X155231330Y-112971143D01*
X155194110Y-112926579D01*
X155175315Y-112897743D01*
X155172889Y-112885042D01*
X155183471Y-112866506D01*
X155207916Y-112828039D01*
X155243612Y-112773614D01*
X155287947Y-112707202D01*
X155338311Y-112632775D01*
X155350160Y-112615399D01*
X155518626Y-112368703D01*
X155468062Y-112257294D01*
X155438595Y-112189543D01*
X155408959Y-112116817D01*
X155385330Y-112054297D01*
X155384358Y-112051543D01*
X155366457Y-112002640D01*
X155351320Y-111964943D01*
X155342210Y-111946575D01*
X155342184Y-111946544D01*
X155325717Y-111940715D01*
X155285219Y-111930808D01*
X155225242Y-111917805D01*
X155150340Y-111902691D01*
X155065064Y-111886448D01*
X155057875Y-111885119D01*
X154970014Y-111868825D01*
X154890260Y-111853867D01*
X154823681Y-111841209D01*
X154775347Y-111831814D01*
X154750325Y-111826646D01*
X154749943Y-111826556D01*
X154739299Y-111823411D01*
X154731262Y-111817296D01*
X154725467Y-111804547D01*
X154721547Y-111781500D01*
X154719135Y-111744491D01*
X154717865Y-111689856D01*
X154717371Y-111613933D01*
X154717286Y-111513056D01*
X154717286Y-111500000D01*
X154717348Y-111396090D01*
G37*
X154717348Y-111396090D02*
X154717778Y-111317546D01*
X154718942Y-111260702D01*
X154721207Y-111221895D01*
X154724940Y-111197462D01*
X154730506Y-111183738D01*
X154738273Y-111177060D01*
X154748605Y-111173764D01*
X154749943Y-111173444D01*
X154774079Y-111168438D01*
X154821701Y-111159171D01*
X154887741Y-111146608D01*
X154967128Y-111131713D01*
X155054796Y-111115449D01*
X155057875Y-111114881D01*
X155143789Y-111098590D01*
X155219696Y-111083348D01*
X155281045Y-111070139D01*
X155323282Y-111059946D01*
X155341855Y-111053752D01*
X155342184Y-111053457D01*
X155351253Y-111035212D01*
X155366367Y-110997595D01*
X155384262Y-110948729D01*
X155384358Y-110948457D01*
X155407493Y-110886907D01*
X155436965Y-110814343D01*
X155466597Y-110745943D01*
X155468062Y-110742706D01*
X155518626Y-110631298D01*
X155350160Y-110384601D01*
X155298803Y-110308923D01*
X155252889Y-110240369D01*
X155215030Y-110182912D01*
X155187837Y-110140524D01*
X155173921Y-110117175D01*
X155172889Y-110114958D01*
X155177484Y-110097990D01*
X155199655Y-110066299D01*
X155240447Y-110018648D01*
X155300905Y-109953802D01*
X155365227Y-109887603D01*
X155428612Y-109823786D01*
X155486451Y-109766671D01*
X155535175Y-109719695D01*
X155571210Y-109686297D01*
X155590984Y-109669915D01*
X155592002Y-109669306D01*
X155605572Y-109667495D01*
X155627733Y-109674317D01*
X155661478Y-109691460D01*
X155709800Y-109720607D01*
X155775692Y-109763445D01*
X155860517Y-109820552D01*
X155935177Y-109871234D01*
X156002140Y-109916539D01*
X156057516Y-109953850D01*
X156097420Y-109980548D01*
X156117962Y-109994015D01*
X156119356Y-109994863D01*
X156139038Y-109993219D01*
X156177293Y-109980755D01*
X156226889Y-109959952D01*
X156242728Y-109952538D01*
X156313290Y-109920186D01*
X156393353Y-109885672D01*
X156462629Y-109857635D01*
X156514045Y-109837432D01*
X156553119Y-109821385D01*
X156573541Y-109812112D01*
X156575114Y-109810959D01*
X156577721Y-109793904D01*
X156584863Y-109753702D01*
X156595523Y-109695698D01*
X156608685Y-109625237D01*
X156623333Y-109547665D01*
X156638449Y-109468328D01*
X156653018Y-109392569D01*
X156666022Y-109325736D01*
X156676445Y-109273172D01*
X156683270Y-109240224D01*
X156685199Y-109232143D01*
X156689962Y-109223795D01*
X156700718Y-109217494D01*
X156721098Y-109212955D01*
X156754734Y-109209896D01*
X156805255Y-109208033D01*
X156876292Y-109207082D01*
X156971476Y-109206760D01*
X157010492Y-109206743D01*
X157327799Y-109206743D01*
X157342839Y-109282943D01*
X157350995Y-109325337D01*
X157362899Y-109388600D01*
X157377116Y-109465038D01*
X157392210Y-109546957D01*
X157396355Y-109569600D01*
X157411053Y-109645194D01*
X157425505Y-109711047D01*
X157438375Y-109761634D01*
X157448322Y-109791426D01*
X157451287Y-109796388D01*
X157472283Y-109808574D01*
X157512967Y-109826047D01*
X157565322Y-109845423D01*
X157576600Y-109849266D01*
X157646523Y-109874661D01*
X157725418Y-109906183D01*
X157796266Y-109937031D01*
X157796595Y-109937183D01*
X157907733Y-109988553D01*
X158156253Y-109819601D01*
X158404772Y-109650648D01*
X158622058Y-109867571D01*
X158686726Y-109933181D01*
X158743733Y-109993021D01*
X158790033Y-110043733D01*
X158822584Y-110081954D01*
X158838343Y-110104325D01*
X158839343Y-110107534D01*
X158831469Y-110126374D01*
X158809578Y-110164820D01*
X158776267Y-110218670D01*
X158734131Y-110283724D01*
X158686943Y-110354060D01*
X158638810Y-110425445D01*
X158596928Y-110489092D01*
X158563871Y-110540959D01*
X158542218Y-110577005D01*
X158534543Y-110593133D01*
X158541037Y-110612811D01*
X158558150Y-110650125D01*
X158582326Y-110697379D01*
X158585013Y-110702388D01*
X158616927Y-110766023D01*
X158632579Y-110809659D01*
X158632745Y-110836798D01*
X158618204Y-110850943D01*
X158618000Y-110851025D01*
X158600779Y-110858095D01*
X158559899Y-110874958D01*
X158498525Y-110900305D01*
X158419819Y-110932829D01*
X158326947Y-110971222D01*
X158223072Y-111014178D01*
X158122502Y-111055778D01*
X158011516Y-111101496D01*
X157908703Y-111143474D01*
X157817215Y-111180452D01*
X157740201Y-111211173D01*
X157680815Y-111234378D01*
X157642209Y-111248810D01*
X157627800Y-111253257D01*
X157611272Y-111242104D01*
X157584930Y-111212931D01*
X157555887Y-111174029D01*
X157464039Y-111063243D01*
X157358759Y-110976649D01*
X157242266Y-110915284D01*
X157116776Y-110880185D01*
X156984507Y-110872392D01*
X156923457Y-110878057D01*
X156796795Y-110908922D01*
X156684941Y-110962080D01*
X156589001Y-111034233D01*
X156510076Y-111122083D01*
X156449270Y-111222335D01*
X156407687Y-111331690D01*
X156386428Y-111446853D01*
X156386599Y-111564525D01*
X156409301Y-111681410D01*
X156455638Y-111794211D01*
X156526713Y-111899631D01*
X156566911Y-111943632D01*
X156670129Y-112028021D01*
X156782925Y-112086778D01*
X156902010Y-112120296D01*
X157024095Y-112128965D01*
X157145893Y-112113177D01*
X157264116Y-112073322D01*
X157375475Y-112009793D01*
X157476684Y-111922979D01*
X157555887Y-111825971D01*
X157586162Y-111785563D01*
X157612219Y-111757018D01*
X157627825Y-111746743D01*
X157644843Y-111752123D01*
X157685500Y-111767425D01*
X157746642Y-111791388D01*
X157825119Y-111822756D01*
X157917780Y-111860268D01*
X158021472Y-111902667D01*
X158122526Y-111944337D01*
X158233607Y-111990310D01*
X158336541Y-112032893D01*
X158428165Y-112070779D01*
X158505316Y-112102660D01*
X158564831Y-112127229D01*
X158603544Y-112143180D01*
X158618000Y-112149090D01*
X158632685Y-112163052D01*
X158632642Y-112190060D01*
X158617099Y-112233587D01*
X158585284Y-112297110D01*
X158585013Y-112297612D01*
X158560323Y-112345440D01*
X158542338Y-112384103D01*
X158534614Y-112405905D01*
X158534543Y-112406867D01*
X158542378Y-112423279D01*
X158564165Y-112459513D01*
X158597328Y-112511526D01*
X158639291Y-112575275D01*
X158686943Y-112645940D01*
X158735191Y-112717884D01*
X158777151Y-112782726D01*
X158810227Y-112836265D01*
X158831821Y-112874303D01*
X158839343Y-112892467D01*
X158829457Y-112909192D01*
X158801826Y-112942820D01*
X158759495Y-112989990D01*
X158705505Y-113047342D01*
X158642899Y-113111516D01*
X158621983Y-113132503D01*
X158404623Y-113349501D01*
X158162220Y-113184332D01*
X158087781Y-113134136D01*
X158020972Y-113090081D01*
X157965665Y-113054638D01*
X157925729Y-113030281D01*
X157905036Y-113019478D01*
X157903563Y-113019162D01*
X157884058Y-113024857D01*
X157844822Y-113040174D01*
X157792430Y-113062463D01*
X157757355Y-113078107D01*
X157690201Y-113107359D01*
X157622358Y-113134906D01*
X157565034Y-113156263D01*
X157547572Y-113162065D01*
X157500938Y-113178548D01*
X157464905Y-113194660D01*
X157451287Y-113203510D01*
X157442952Y-113223040D01*
X157431137Y-113265666D01*
X157417181Y-113325855D01*
X157402422Y-113398078D01*
X157396355Y-113430400D01*
X157381273Y-113512478D01*
X157366669Y-113591205D01*
X157353980Y-113658891D01*
X157344642Y-113707840D01*
X157342839Y-113717057D01*
X157327799Y-113793257D01*
X157010492Y-113793257D01*
X156906154Y-113793086D01*
X156827213Y-113792384D01*
X156770038Y-113790866D01*
X156730999Y-113788251D01*
X156706465Y-113784254D01*
X156692805Y-113778591D01*
X156686389Y-113770980D01*
X156685199Y-113767857D01*
X156680980Y-113749022D01*
X156672562Y-113707412D01*
X156660961Y-113648370D01*
X156647195Y-113577243D01*
X156632280Y-113499375D01*
X156617232Y-113420113D01*
X156603069Y-113344802D01*
X156590806Y-113278787D01*
X156581461Y-113227413D01*
X156576050Y-113196025D01*
X156575114Y-113189041D01*
X156562596Y-113182715D01*
X156529246Y-113168710D01*
X156481377Y-113149645D01*
X156462629Y-113142366D01*
X156390195Y-113113004D01*
X156310170Y-113078429D01*
X156242728Y-113047463D01*
X156191159Y-113024677D01*
X156148785Y-113009518D01*
X156122834Y-113004458D01*
X156119356Y-113005264D01*
X156102936Y-113015959D01*
X156066417Y-113040380D01*
X156013687Y-113075905D01*
X155948635Y-113119913D01*
X155875151Y-113169783D01*
X155860645Y-113179644D01*
X155774704Y-113237508D01*
X155709261Y-113280044D01*
X155661304Y-113308946D01*
X155627820Y-113325910D01*
X155605795Y-113332633D01*
X155592217Y-113330810D01*
X155592131Y-113330764D01*
X155574297Y-113316414D01*
X155539817Y-113284677D01*
X155492268Y-113238990D01*
X155435222Y-113182796D01*
X155372255Y-113119532D01*
X155365227Y-113112398D01*
X155288020Y-113032670D01*
X155231330Y-112971143D01*
X155194110Y-112926579D01*
X155175315Y-112897743D01*
X155172889Y-112885042D01*
X155183471Y-112866506D01*
X155207916Y-112828039D01*
X155243612Y-112773614D01*
X155287947Y-112707202D01*
X155338311Y-112632775D01*
X155350160Y-112615399D01*
X155518626Y-112368703D01*
X155468062Y-112257294D01*
X155438595Y-112189543D01*
X155408959Y-112116817D01*
X155385330Y-112054297D01*
X155384358Y-112051543D01*
X155366457Y-112002640D01*
X155351320Y-111964943D01*
X155342210Y-111946575D01*
X155342184Y-111946544D01*
X155325717Y-111940715D01*
X155285219Y-111930808D01*
X155225242Y-111917805D01*
X155150340Y-111902691D01*
X155065064Y-111886448D01*
X155057875Y-111885119D01*
X154970014Y-111868825D01*
X154890260Y-111853867D01*
X154823681Y-111841209D01*
X154775347Y-111831814D01*
X154750325Y-111826646D01*
X154749943Y-111826556D01*
X154739299Y-111823411D01*
X154731262Y-111817296D01*
X154725467Y-111804547D01*
X154721547Y-111781500D01*
X154719135Y-111744491D01*
X154717865Y-111689856D01*
X154717371Y-111613933D01*
X154717286Y-111513056D01*
X154717286Y-111500000D01*
X154717348Y-111396090D01*
G36*
X159441966Y-108346405D02*
G01*
X159479497Y-108288979D01*
X159513096Y-108261281D01*
X159574064Y-108239338D01*
X159622308Y-108237595D01*
X159686816Y-108241543D01*
X159751934Y-108390314D01*
X159785202Y-108462651D01*
X159811964Y-108509916D01*
X159835144Y-108534493D01*
X159857667Y-108538763D01*
X159882455Y-108525111D01*
X159898886Y-108510057D01*
X159925235Y-108466254D01*
X159927081Y-108418611D01*
X159906546Y-108374855D01*
X159865752Y-108342711D01*
X159851347Y-108336962D01*
X159806356Y-108309424D01*
X159787182Y-108277742D01*
X159770779Y-108234286D01*
X159832966Y-108234286D01*
X159875283Y-108238128D01*
X159910969Y-108253177D01*
X159951943Y-108284720D01*
X159957267Y-108289408D01*
X159993720Y-108324494D01*
X160013283Y-108354653D01*
X160022283Y-108392385D01*
X160025230Y-108423665D01*
X160025965Y-108479615D01*
X160016660Y-108519445D01*
X160002846Y-108544292D01*
X159972467Y-108583344D01*
X159939613Y-108610375D01*
X159898294Y-108627483D01*
X159842521Y-108636762D01*
X159766305Y-108640307D01*
X159727622Y-108640590D01*
X159681247Y-108639628D01*
X159681247Y-108551993D01*
X159706126Y-108550977D01*
X159710200Y-108548444D01*
X159704665Y-108531726D01*
X159690017Y-108495751D01*
X159669190Y-108447669D01*
X159664714Y-108437614D01*
X159633814Y-108376848D01*
X159606657Y-108343368D01*
X159581220Y-108336010D01*
X159555481Y-108353609D01*
X159544109Y-108368144D01*
X159521364Y-108420590D01*
X159525122Y-108469678D01*
X159552884Y-108510773D01*
X159602152Y-108539242D01*
X159641257Y-108548369D01*
X159681247Y-108551993D01*
X159681247Y-108639628D01*
X159637249Y-108638715D01*
X159570384Y-108631804D01*
X159521695Y-108618116D01*
X159485849Y-108595904D01*
X159457513Y-108563426D01*
X159448355Y-108549267D01*
X159424507Y-108484947D01*
X159423006Y-108414527D01*
X159441966Y-108346405D01*
G37*
X159441966Y-108346405D02*
X159479497Y-108288979D01*
X159513096Y-108261281D01*
X159574064Y-108239338D01*
X159622308Y-108237595D01*
X159686816Y-108241543D01*
X159751934Y-108390314D01*
X159785202Y-108462651D01*
X159811964Y-108509916D01*
X159835144Y-108534493D01*
X159857667Y-108538763D01*
X159882455Y-108525111D01*
X159898886Y-108510057D01*
X159925235Y-108466254D01*
X159927081Y-108418611D01*
X159906546Y-108374855D01*
X159865752Y-108342711D01*
X159851347Y-108336962D01*
X159806356Y-108309424D01*
X159787182Y-108277742D01*
X159770779Y-108234286D01*
X159832966Y-108234286D01*
X159875283Y-108238128D01*
X159910969Y-108253177D01*
X159951943Y-108284720D01*
X159957267Y-108289408D01*
X159993720Y-108324494D01*
X160013283Y-108354653D01*
X160022283Y-108392385D01*
X160025230Y-108423665D01*
X160025965Y-108479615D01*
X160016660Y-108519445D01*
X160002846Y-108544292D01*
X159972467Y-108583344D01*
X159939613Y-108610375D01*
X159898294Y-108627483D01*
X159842521Y-108636762D01*
X159766305Y-108640307D01*
X159727622Y-108640590D01*
X159681247Y-108639628D01*
X159681247Y-108551993D01*
X159706126Y-108550977D01*
X159710200Y-108548444D01*
X159704665Y-108531726D01*
X159690017Y-108495751D01*
X159669190Y-108447669D01*
X159664714Y-108437614D01*
X159633814Y-108376848D01*
X159606657Y-108343368D01*
X159581220Y-108336010D01*
X159555481Y-108353609D01*
X159544109Y-108368144D01*
X159521364Y-108420590D01*
X159525122Y-108469678D01*
X159552884Y-108510773D01*
X159602152Y-108539242D01*
X159641257Y-108548369D01*
X159681247Y-108551993D01*
X159681247Y-108639628D01*
X159637249Y-108638715D01*
X159570384Y-108631804D01*
X159521695Y-108618116D01*
X159485849Y-108595904D01*
X159457513Y-108563426D01*
X159448355Y-108549267D01*
X159424507Y-108484947D01*
X159423006Y-108414527D01*
X159441966Y-108346405D01*
G36*
X159433752Y-108847400D02*
G01*
X159441334Y-108830052D01*
X159474128Y-108788644D01*
X159521547Y-108753235D01*
X159572151Y-108731336D01*
X159597098Y-108727771D01*
X159631927Y-108739721D01*
X159650357Y-108765933D01*
X159661516Y-108794036D01*
X159663572Y-108806905D01*
X159648649Y-108813171D01*
X159616175Y-108825544D01*
X159601502Y-108830972D01*
X159550744Y-108861410D01*
X159525427Y-108905480D01*
X159526206Y-108961990D01*
X159527203Y-108966175D01*
X159541507Y-108996345D01*
X159569393Y-109018524D01*
X159614287Y-109033673D01*
X159679615Y-109042750D01*
X159768804Y-109046714D01*
X159816261Y-109047086D01*
X159891071Y-109047270D01*
X159942069Y-109048478D01*
X159974471Y-109051691D01*
X159993495Y-109057891D01*
X160004356Y-109068060D01*
X160012272Y-109083181D01*
X160012670Y-109084054D01*
X160024981Y-109113172D01*
X160029514Y-109127597D01*
X160015809Y-109129814D01*
X159977925Y-109131711D01*
X159920715Y-109133153D01*
X159849027Y-109134002D01*
X159796565Y-109134171D01*
X159695047Y-109133308D01*
X159618032Y-109129930D01*
X159561023Y-109122858D01*
X159519526Y-109110912D01*
X159489043Y-109092910D01*
X159465080Y-109067673D01*
X159448355Y-109042753D01*
X159426097Y-108982829D01*
X159421076Y-108913089D01*
X159433752Y-108847400D01*
G37*
X159433752Y-108847400D02*
X159441334Y-108830052D01*
X159474128Y-108788644D01*
X159521547Y-108753235D01*
X159572151Y-108731336D01*
X159597098Y-108727771D01*
X159631927Y-108739721D01*
X159650357Y-108765933D01*
X159661516Y-108794036D01*
X159663572Y-108806905D01*
X159648649Y-108813171D01*
X159616175Y-108825544D01*
X159601502Y-108830972D01*
X159550744Y-108861410D01*
X159525427Y-108905480D01*
X159526206Y-108961990D01*
X159527203Y-108966175D01*
X159541507Y-108996345D01*
X159569393Y-109018524D01*
X159614287Y-109033673D01*
X159679615Y-109042750D01*
X159768804Y-109046714D01*
X159816261Y-109047086D01*
X159891071Y-109047270D01*
X159942069Y-109048478D01*
X159974471Y-109051691D01*
X159993495Y-109057891D01*
X160004356Y-109068060D01*
X160012272Y-109083181D01*
X160012670Y-109084054D01*
X160024981Y-109113172D01*
X160029514Y-109127597D01*
X160015809Y-109129814D01*
X159977925Y-109131711D01*
X159920715Y-109133153D01*
X159849027Y-109134002D01*
X159796565Y-109134171D01*
X159695047Y-109133308D01*
X159618032Y-109129930D01*
X159561023Y-109122858D01*
X159519526Y-109110912D01*
X159489043Y-109092910D01*
X159465080Y-109067673D01*
X159448355Y-109042753D01*
X159426097Y-108982829D01*
X159421076Y-108913089D01*
X159433752Y-108847400D01*
G36*
X159431335Y-109355124D02*
G01*
X159450344Y-109313333D01*
X159473378Y-109280531D01*
X159499133Y-109256497D01*
X159532358Y-109239903D01*
X159577800Y-109229423D01*
X159640207Y-109223729D01*
X159724327Y-109221493D01*
X159779721Y-109221257D01*
X159995826Y-109221257D01*
X160012670Y-109258226D01*
X160024981Y-109287344D01*
X160029514Y-109301769D01*
X160016025Y-109304528D01*
X159979653Y-109306718D01*
X159926542Y-109308058D01*
X159884372Y-109308343D01*
X159823447Y-109309566D01*
X159775115Y-109312864D01*
X159745518Y-109317679D01*
X159739229Y-109321504D01*
X159745652Y-109347217D01*
X159762125Y-109387582D01*
X159784458Y-109434321D01*
X159808457Y-109479155D01*
X159829930Y-109513807D01*
X159844685Y-109529998D01*
X159844845Y-109530062D01*
X159872152Y-109528670D01*
X159898219Y-109516182D01*
X159919392Y-109494257D01*
X159926474Y-109462257D01*
X159925649Y-109434908D01*
X159925042Y-109396174D01*
X159934116Y-109375842D01*
X159958092Y-109363631D01*
X159962613Y-109362091D01*
X159996806Y-109356797D01*
X160017568Y-109370953D01*
X160027462Y-109407852D01*
X160029292Y-109447711D01*
X160015727Y-109519438D01*
X159996355Y-109556568D01*
X159950845Y-109602424D01*
X159894983Y-109626744D01*
X159835957Y-109628927D01*
X159780953Y-109608371D01*
X159746486Y-109577451D01*
X159727189Y-109546580D01*
X159702759Y-109498058D01*
X159677985Y-109441515D01*
X159674199Y-109432090D01*
X159646791Y-109369981D01*
X159622634Y-109334178D01*
X159598619Y-109322663D01*
X159571635Y-109333420D01*
X159550543Y-109351886D01*
X159524572Y-109395531D01*
X159522624Y-109443554D01*
X159542637Y-109487594D01*
X159582551Y-109519291D01*
X159592848Y-109523451D01*
X159630724Y-109547673D01*
X159658842Y-109583035D01*
X159681917Y-109627657D01*
X159616485Y-109627657D01*
X159576506Y-109625031D01*
X159544997Y-109613770D01*
X159511378Y-109588801D01*
X159485484Y-109564831D01*
X159448817Y-109527559D01*
X159429121Y-109498599D01*
X159421220Y-109467495D01*
X159419914Y-109432287D01*
X159431335Y-109355124D01*
G37*
X159431335Y-109355124D02*
X159450344Y-109313333D01*
X159473378Y-109280531D01*
X159499133Y-109256497D01*
X159532358Y-109239903D01*
X159577800Y-109229423D01*
X159640207Y-109223729D01*
X159724327Y-109221493D01*
X159779721Y-109221257D01*
X159995826Y-109221257D01*
X160012670Y-109258226D01*
X160024981Y-109287344D01*
X160029514Y-109301769D01*
X160016025Y-109304528D01*
X159979653Y-109306718D01*
X159926542Y-109308058D01*
X159884372Y-109308343D01*
X159823447Y-109309566D01*
X159775115Y-109312864D01*
X159745518Y-109317679D01*
X159739229Y-109321504D01*
X159745652Y-109347217D01*
X159762125Y-109387582D01*
X159784458Y-109434321D01*
X159808457Y-109479155D01*
X159829930Y-109513807D01*
X159844685Y-109529998D01*
X159844845Y-109530062D01*
X159872152Y-109528670D01*
X159898219Y-109516182D01*
X159919392Y-109494257D01*
X159926474Y-109462257D01*
X159925649Y-109434908D01*
X159925042Y-109396174D01*
X159934116Y-109375842D01*
X159958092Y-109363631D01*
X159962613Y-109362091D01*
X159996806Y-109356797D01*
X160017568Y-109370953D01*
X160027462Y-109407852D01*
X160029292Y-109447711D01*
X160015727Y-109519438D01*
X159996355Y-109556568D01*
X159950845Y-109602424D01*
X159894983Y-109626744D01*
X159835957Y-109628927D01*
X159780953Y-109608371D01*
X159746486Y-109577451D01*
X159727189Y-109546580D01*
X159702759Y-109498058D01*
X159677985Y-109441515D01*
X159674199Y-109432090D01*
X159646791Y-109369981D01*
X159622634Y-109334178D01*
X159598619Y-109322663D01*
X159571635Y-109333420D01*
X159550543Y-109351886D01*
X159524572Y-109395531D01*
X159522624Y-109443554D01*
X159542637Y-109487594D01*
X159582551Y-109519291D01*
X159592848Y-109523451D01*
X159630724Y-109547673D01*
X159658842Y-109583035D01*
X159681917Y-109627657D01*
X159616485Y-109627657D01*
X159576506Y-109625031D01*
X159544997Y-109613770D01*
X159511378Y-109588801D01*
X159485484Y-109564831D01*
X159448817Y-109527559D01*
X159429121Y-109498599D01*
X159421220Y-109467495D01*
X159419914Y-109432287D01*
X159431335Y-109355124D01*
G36*
X159433663Y-109720167D02*
G01*
X159471850Y-109717952D01*
X159529886Y-109716216D01*
X159603180Y-109715101D01*
X159680055Y-109714743D01*
X159940196Y-109714743D01*
X159986127Y-109760674D01*
X160014429Y-109792325D01*
X160025893Y-109820110D01*
X160025168Y-109858085D01*
X160023321Y-109873160D01*
X160017948Y-109920274D01*
X160014869Y-109959244D01*
X160014585Y-109968743D01*
X160016445Y-110000767D01*
X160021114Y-110046568D01*
X160023321Y-110064326D01*
X160026735Y-110107943D01*
X160019320Y-110137255D01*
X159996427Y-110166320D01*
X159986127Y-110176812D01*
X159940196Y-110222743D01*
X159453602Y-110222743D01*
X159436758Y-110185774D01*
X159424282Y-110153941D01*
X159419914Y-110135317D01*
X159433718Y-110130542D01*
X159472286Y-110126079D01*
X159531356Y-110122225D01*
X159606663Y-110119278D01*
X159670286Y-110117857D01*
X159920657Y-110113886D01*
X159925556Y-110079241D01*
X159922131Y-110047732D01*
X159911041Y-110032292D01*
X159890308Y-110027977D01*
X159846145Y-110024292D01*
X159784146Y-110021531D01*
X159709909Y-110019988D01*
X159671706Y-110019765D01*
X159451783Y-110019543D01*
X159435849Y-109973834D01*
X159425015Y-109941482D01*
X159419962Y-109923885D01*
X159419914Y-109923377D01*
X159433648Y-109921612D01*
X159471730Y-109919671D01*
X159529482Y-109917718D01*
X159602227Y-109915916D01*
X159670286Y-109914657D01*
X159920657Y-109910686D01*
X159920657Y-109823600D01*
X159692240Y-109819604D01*
X159463822Y-109815608D01*
X159441868Y-109773153D01*
X159426793Y-109741808D01*
X159419951Y-109723256D01*
X159419914Y-109722721D01*
X159433663Y-109720167D01*
G37*
X159433663Y-109720167D02*
X159471850Y-109717952D01*
X159529886Y-109716216D01*
X159603180Y-109715101D01*
X159680055Y-109714743D01*
X159940196Y-109714743D01*
X159986127Y-109760674D01*
X160014429Y-109792325D01*
X160025893Y-109820110D01*
X160025168Y-109858085D01*
X160023321Y-109873160D01*
X160017948Y-109920274D01*
X160014869Y-109959244D01*
X160014585Y-109968743D01*
X160016445Y-110000767D01*
X160021114Y-110046568D01*
X160023321Y-110064326D01*
X160026735Y-110107943D01*
X160019320Y-110137255D01*
X159996427Y-110166320D01*
X159986127Y-110176812D01*
X159940196Y-110222743D01*
X159453602Y-110222743D01*
X159436758Y-110185774D01*
X159424282Y-110153941D01*
X159419914Y-110135317D01*
X159433718Y-110130542D01*
X159472286Y-110126079D01*
X159531356Y-110122225D01*
X159606663Y-110119278D01*
X159670286Y-110117857D01*
X159920657Y-110113886D01*
X159925556Y-110079241D01*
X159922131Y-110047732D01*
X159911041Y-110032292D01*
X159890308Y-110027977D01*
X159846145Y-110024292D01*
X159784146Y-110021531D01*
X159709909Y-110019988D01*
X159671706Y-110019765D01*
X159451783Y-110019543D01*
X159435849Y-109973834D01*
X159425015Y-109941482D01*
X159419962Y-109923885D01*
X159419914Y-109923377D01*
X159433648Y-109921612D01*
X159471730Y-109919671D01*
X159529482Y-109917718D01*
X159602227Y-109915916D01*
X159670286Y-109914657D01*
X159920657Y-109910686D01*
X159920657Y-109823600D01*
X159692240Y-109819604D01*
X159463822Y-109815608D01*
X159441868Y-109773153D01*
X159426793Y-109741808D01*
X159419951Y-109723256D01*
X159419914Y-109722721D01*
X159433663Y-109720167D01*
G36*
X159540358Y-110309883D02*
G01*
X159648837Y-110310067D01*
X159732287Y-110310781D01*
X159794704Y-110312325D01*
X159840085Y-110314999D01*
X159872429Y-110319106D01*
X159895733Y-110324945D01*
X159913995Y-110332818D01*
X159924418Y-110338779D01*
X159980945Y-110388145D01*
X160016377Y-110450736D01*
X160029090Y-110519987D01*
X160017463Y-110589332D01*
X159996568Y-110630625D01*
X159960422Y-110673975D01*
X159916276Y-110703519D01*
X159858462Y-110721345D01*
X159781313Y-110729537D01*
X159724714Y-110730698D01*
X159720647Y-110730542D01*
X159720647Y-110629143D01*
X159785550Y-110628524D01*
X159828514Y-110625686D01*
X159856622Y-110619160D01*
X159876953Y-110607477D01*
X159892288Y-110593517D01*
X159921890Y-110546635D01*
X159924419Y-110496299D01*
X159899705Y-110448724D01*
X159896356Y-110445021D01*
X159878935Y-110429217D01*
X159858209Y-110419307D01*
X159827362Y-110413942D01*
X159779577Y-110411772D01*
X159726748Y-110411429D01*
X159660381Y-110412173D01*
X159616106Y-110415252D01*
X159587009Y-110421939D01*
X159566173Y-110433504D01*
X159555107Y-110442987D01*
X159527198Y-110487040D01*
X159523843Y-110537776D01*
X159545159Y-110586204D01*
X159553073Y-110595550D01*
X159570647Y-110611460D01*
X159591587Y-110621390D01*
X159622782Y-110626722D01*
X159671122Y-110628837D01*
X159720647Y-110629143D01*
X159720647Y-110730542D01*
X159633568Y-110727190D01*
X159565086Y-110715274D01*
X159513600Y-110692865D01*
X159473443Y-110657876D01*
X159452861Y-110630625D01*
X159430625Y-110581093D01*
X159420304Y-110523684D01*
X159423067Y-110470318D01*
X159434212Y-110440457D01*
X159437383Y-110428739D01*
X159425557Y-110420963D01*
X159393866Y-110415535D01*
X159345593Y-110411429D01*
X159291829Y-110406933D01*
X159259482Y-110400687D01*
X159240985Y-110389324D01*
X159228770Y-110369472D01*
X159223362Y-110357000D01*
X159203601Y-110309829D01*
X159540358Y-110309883D01*
G37*
X159540358Y-110309883D02*
X159648837Y-110310067D01*
X159732287Y-110310781D01*
X159794704Y-110312325D01*
X159840085Y-110314999D01*
X159872429Y-110319106D01*
X159895733Y-110324945D01*
X159913995Y-110332818D01*
X159924418Y-110338779D01*
X159980945Y-110388145D01*
X160016377Y-110450736D01*
X160029090Y-110519987D01*
X160017463Y-110589332D01*
X159996568Y-110630625D01*
X159960422Y-110673975D01*
X159916276Y-110703519D01*
X159858462Y-110721345D01*
X159781313Y-110729537D01*
X159724714Y-110730698D01*
X159720647Y-110730542D01*
X159720647Y-110629143D01*
X159785550Y-110628524D01*
X159828514Y-110625686D01*
X159856622Y-110619160D01*
X159876953Y-110607477D01*
X159892288Y-110593517D01*
X159921890Y-110546635D01*
X159924419Y-110496299D01*
X159899705Y-110448724D01*
X159896356Y-110445021D01*
X159878935Y-110429217D01*
X159858209Y-110419307D01*
X159827362Y-110413942D01*
X159779577Y-110411772D01*
X159726748Y-110411429D01*
X159660381Y-110412173D01*
X159616106Y-110415252D01*
X159587009Y-110421939D01*
X159566173Y-110433504D01*
X159555107Y-110442987D01*
X159527198Y-110487040D01*
X159523843Y-110537776D01*
X159545159Y-110586204D01*
X159553073Y-110595550D01*
X159570647Y-110611460D01*
X159591587Y-110621390D01*
X159622782Y-110626722D01*
X159671122Y-110628837D01*
X159720647Y-110629143D01*
X159720647Y-110730542D01*
X159633568Y-110727190D01*
X159565086Y-110715274D01*
X159513600Y-110692865D01*
X159473443Y-110657876D01*
X159452861Y-110630625D01*
X159430625Y-110581093D01*
X159420304Y-110523684D01*
X159423067Y-110470318D01*
X159434212Y-110440457D01*
X159437383Y-110428739D01*
X159425557Y-110420963D01*
X159393866Y-110415535D01*
X159345593Y-110411429D01*
X159291829Y-110406933D01*
X159259482Y-110400687D01*
X159240985Y-110389324D01*
X159228770Y-110369472D01*
X159223362Y-110357000D01*
X159203601Y-110309829D01*
X159540358Y-110309883D01*
G36*
X159424755Y-110970074D02*
G01*
X159449084Y-110904142D01*
X159492117Y-110850727D01*
X159522409Y-110829836D01*
X159577994Y-110807061D01*
X159618186Y-110807534D01*
X159645217Y-110831438D01*
X159649813Y-110840283D01*
X159664144Y-110878470D01*
X159660472Y-110897972D01*
X159636407Y-110904578D01*
X159623114Y-110904914D01*
X159574210Y-110917008D01*
X159539999Y-110948529D01*
X159523476Y-110992341D01*
X159527634Y-111041305D01*
X159549227Y-111081106D01*
X159561544Y-111094550D01*
X159576487Y-111104079D01*
X159599075Y-111110515D01*
X159634328Y-111114683D01*
X159687266Y-111117403D01*
X159762907Y-111119498D01*
X159786857Y-111120040D01*
X159868790Y-111122019D01*
X159926455Y-111124269D01*
X159964608Y-111127643D01*
X159988004Y-111132994D01*
X160001398Y-111141176D01*
X160009545Y-111153041D01*
X160013144Y-111160638D01*
X160025452Y-111192898D01*
X160029514Y-111211889D01*
X160015948Y-111218164D01*
X159974934Y-111221994D01*
X159905999Y-111223400D01*
X159808669Y-111222402D01*
X159793657Y-111222092D01*
X159704859Y-111219899D01*
X159640019Y-111217307D01*
X159594067Y-111213618D01*
X159561935Y-111208136D01*
X159538553Y-111200165D01*
X159518852Y-111189007D01*
X159510410Y-111183170D01*
X159473057Y-111149704D01*
X159444003Y-111112273D01*
X159441467Y-111107691D01*
X159421443Y-111040574D01*
X159424755Y-110970074D01*
G37*
X159424755Y-110970074D02*
X159449084Y-110904142D01*
X159492117Y-110850727D01*
X159522409Y-110829836D01*
X159577994Y-110807061D01*
X159618186Y-110807534D01*
X159645217Y-110831438D01*
X159649813Y-110840283D01*
X159664144Y-110878470D01*
X159660472Y-110897972D01*
X159636407Y-110904578D01*
X159623114Y-110904914D01*
X159574210Y-110917008D01*
X159539999Y-110948529D01*
X159523476Y-110992341D01*
X159527634Y-111041305D01*
X159549227Y-111081106D01*
X159561544Y-111094550D01*
X159576487Y-111104079D01*
X159599075Y-111110515D01*
X159634328Y-111114683D01*
X159687266Y-111117403D01*
X159762907Y-111119498D01*
X159786857Y-111120040D01*
X159868790Y-111122019D01*
X159926455Y-111124269D01*
X159964608Y-111127643D01*
X159988004Y-111132994D01*
X160001398Y-111141176D01*
X160009545Y-111153041D01*
X160013144Y-111160638D01*
X160025452Y-111192898D01*
X160029514Y-111211889D01*
X160015948Y-111218164D01*
X159974934Y-111221994D01*
X159905999Y-111223400D01*
X159808669Y-111222402D01*
X159793657Y-111222092D01*
X159704859Y-111219899D01*
X159640019Y-111217307D01*
X159594067Y-111213618D01*
X159561935Y-111208136D01*
X159538553Y-111200165D01*
X159518852Y-111189007D01*
X159510410Y-111183170D01*
X159473057Y-111149704D01*
X159444003Y-111112273D01*
X159441467Y-111107691D01*
X159421443Y-111040574D01*
X159424755Y-110970074D01*
G36*
X159425968Y-111460256D02*
G01*
X159447087Y-111403384D01*
X159447493Y-111402733D01*
X159473380Y-111367560D01*
X159503633Y-111341593D01*
X159543058Y-111323330D01*
X159596462Y-111311268D01*
X159668651Y-111303904D01*
X159764432Y-111299736D01*
X159778078Y-111299371D01*
X159983842Y-111294124D01*
X160006678Y-111338284D01*
X160022110Y-111370237D01*
X160029423Y-111389530D01*
X160029514Y-111390422D01*
X160016022Y-111393761D01*
X159979626Y-111396413D01*
X159926452Y-111398044D01*
X159883393Y-111398400D01*
X159813641Y-111398408D01*
X159769837Y-111401597D01*
X159748944Y-111412712D01*
X159747925Y-111436499D01*
X159763741Y-111477704D01*
X159792815Y-111539914D01*
X159816963Y-111585659D01*
X159837913Y-111609187D01*
X159860747Y-111616104D01*
X159861877Y-111616114D01*
X159901212Y-111604701D01*
X159922462Y-111570908D01*
X159925539Y-111519191D01*
X159925006Y-111481939D01*
X159935735Y-111462297D01*
X159961505Y-111450048D01*
X159994337Y-111442998D01*
X160012966Y-111453158D01*
X160015632Y-111456983D01*
X160026340Y-111492999D01*
X160027856Y-111543434D01*
X160020759Y-111595374D01*
X160007788Y-111632178D01*
X159964585Y-111683062D01*
X159904446Y-111711986D01*
X159857462Y-111717714D01*
X159815082Y-111713343D01*
X159780488Y-111697525D01*
X159749763Y-111666203D01*
X159718990Y-111615322D01*
X159684252Y-111540824D01*
X159682288Y-111536286D01*
X159651287Y-111469179D01*
X159625862Y-111427768D01*
X159603014Y-111410019D01*
X159579745Y-111413893D01*
X159553056Y-111437357D01*
X159546914Y-111444373D01*
X159523100Y-111491370D01*
X159524103Y-111540067D01*
X159547451Y-111582478D01*
X159590675Y-111610616D01*
X159599160Y-111613231D01*
X159640308Y-111638692D01*
X159660128Y-111670999D01*
X159679770Y-111717714D01*
X159628950Y-111717714D01*
X159555082Y-111703504D01*
X159487327Y-111661325D01*
X159464661Y-111639376D01*
X159435569Y-111589483D01*
X159422400Y-111526033D01*
X159425968Y-111460256D01*
G37*
X159425968Y-111460256D02*
X159447087Y-111403384D01*
X159447493Y-111402733D01*
X159473380Y-111367560D01*
X159503633Y-111341593D01*
X159543058Y-111323330D01*
X159596462Y-111311268D01*
X159668651Y-111303904D01*
X159764432Y-111299736D01*
X159778078Y-111299371D01*
X159983842Y-111294124D01*
X160006678Y-111338284D01*
X160022110Y-111370237D01*
X160029423Y-111389530D01*
X160029514Y-111390422D01*
X160016022Y-111393761D01*
X159979626Y-111396413D01*
X159926452Y-111398044D01*
X159883393Y-111398400D01*
X159813641Y-111398408D01*
X159769837Y-111401597D01*
X159748944Y-111412712D01*
X159747925Y-111436499D01*
X159763741Y-111477704D01*
X159792815Y-111539914D01*
X159816963Y-111585659D01*
X159837913Y-111609187D01*
X159860747Y-111616104D01*
X159861877Y-111616114D01*
X159901212Y-111604701D01*
X159922462Y-111570908D01*
X159925539Y-111519191D01*
X159925006Y-111481939D01*
X159935735Y-111462297D01*
X159961505Y-111450048D01*
X159994337Y-111442998D01*
X160012966Y-111453158D01*
X160015632Y-111456983D01*
X160026340Y-111492999D01*
X160027856Y-111543434D01*
X160020759Y-111595374D01*
X160007788Y-111632178D01*
X159964585Y-111683062D01*
X159904446Y-111711986D01*
X159857462Y-111717714D01*
X159815082Y-111713343D01*
X159780488Y-111697525D01*
X159749763Y-111666203D01*
X159718990Y-111615322D01*
X159684252Y-111540824D01*
X159682288Y-111536286D01*
X159651287Y-111469179D01*
X159625862Y-111427768D01*
X159603014Y-111410019D01*
X159579745Y-111413893D01*
X159553056Y-111437357D01*
X159546914Y-111444373D01*
X159523100Y-111491370D01*
X159524103Y-111540067D01*
X159547451Y-111582478D01*
X159590675Y-111610616D01*
X159599160Y-111613231D01*
X159640308Y-111638692D01*
X159660128Y-111670999D01*
X159679770Y-111717714D01*
X159628950Y-111717714D01*
X159555082Y-111703504D01*
X159487327Y-111661325D01*
X159464661Y-111639376D01*
X159435569Y-111589483D01*
X159422400Y-111526033D01*
X159425968Y-111460256D01*
G36*
X159326289Y-112124114D02*
G01*
X159385613Y-112119861D01*
X159420572Y-112114975D01*
X159435820Y-112108205D01*
X159436015Y-112098298D01*
X159434195Y-112095086D01*
X159421015Y-112052356D01*
X159421785Y-111996773D01*
X159435333Y-111940263D01*
X159452861Y-111904918D01*
X159480861Y-111868679D01*
X159512549Y-111842187D01*
X159552813Y-111824001D01*
X159606543Y-111812678D01*
X159678626Y-111806778D01*
X159773951Y-111804857D01*
X159792237Y-111804823D01*
X159997646Y-111804800D01*
X160013580Y-111850509D01*
X160024420Y-111882973D01*
X160029468Y-111900785D01*
X160029514Y-111901309D01*
X160015828Y-111903063D01*
X159978076Y-111904556D01*
X159921224Y-111905674D01*
X159850234Y-111906303D01*
X159807073Y-111906400D01*
X159721973Y-111906602D01*
X159660981Y-111907642D01*
X159619177Y-111910169D01*
X159591642Y-111914836D01*
X159573456Y-111922293D01*
X159559698Y-111933189D01*
X159553073Y-111939993D01*
X159526375Y-111986728D01*
X159524375Y-112037728D01*
X159546955Y-112083999D01*
X159555107Y-112092556D01*
X159570436Y-112105107D01*
X159588618Y-112113812D01*
X159614909Y-112119369D01*
X159654562Y-112122474D01*
X159712832Y-112123824D01*
X159793173Y-112124114D01*
X159997646Y-112124114D01*
X160013580Y-112169823D01*
X160024420Y-112202287D01*
X160029468Y-112220099D01*
X160029514Y-112220623D01*
X160015623Y-112221963D01*
X159976439Y-112223172D01*
X159915700Y-112224199D01*
X159837141Y-112224998D01*
X159744498Y-112225519D01*
X159641509Y-112225714D01*
X159244342Y-112225714D01*
X159224444Y-112178543D01*
X159204547Y-112131371D01*
X159326289Y-112124114D01*
G37*
X159326289Y-112124114D02*
X159385613Y-112119861D01*
X159420572Y-112114975D01*
X159435820Y-112108205D01*
X159436015Y-112098298D01*
X159434195Y-112095086D01*
X159421015Y-112052356D01*
X159421785Y-111996773D01*
X159435333Y-111940263D01*
X159452861Y-111904918D01*
X159480861Y-111868679D01*
X159512549Y-111842187D01*
X159552813Y-111824001D01*
X159606543Y-111812678D01*
X159678626Y-111806778D01*
X159773951Y-111804857D01*
X159792237Y-111804823D01*
X159997646Y-111804800D01*
X160013580Y-111850509D01*
X160024420Y-111882973D01*
X160029468Y-111900785D01*
X160029514Y-111901309D01*
X160015828Y-111903063D01*
X159978076Y-111904556D01*
X159921224Y-111905674D01*
X159850234Y-111906303D01*
X159807073Y-111906400D01*
X159721973Y-111906602D01*
X159660981Y-111907642D01*
X159619177Y-111910169D01*
X159591642Y-111914836D01*
X159573456Y-111922293D01*
X159559698Y-111933189D01*
X159553073Y-111939993D01*
X159526375Y-111986728D01*
X159524375Y-112037728D01*
X159546955Y-112083999D01*
X159555107Y-112092556D01*
X159570436Y-112105107D01*
X159588618Y-112113812D01*
X159614909Y-112119369D01*
X159654562Y-112122474D01*
X159712832Y-112123824D01*
X159793173Y-112124114D01*
X159997646Y-112124114D01*
X160013580Y-112169823D01*
X160024420Y-112202287D01*
X160029468Y-112220099D01*
X160029514Y-112220623D01*
X160015623Y-112221963D01*
X159976439Y-112223172D01*
X159915700Y-112224199D01*
X159837141Y-112224998D01*
X159744498Y-112225519D01*
X159641509Y-112225714D01*
X159244342Y-112225714D01*
X159224444Y-112178543D01*
X159204547Y-112131371D01*
X159326289Y-112124114D01*
G36*
X159406239Y-113331697D02*
G01*
X159444735Y-113274473D01*
X159500335Y-113230251D01*
X159571086Y-113203833D01*
X159623162Y-113198490D01*
X159644893Y-113199097D01*
X159661531Y-113204178D01*
X159676437Y-113218145D01*
X159692973Y-113245411D01*
X159714498Y-113290388D01*
X159744374Y-113357489D01*
X159744524Y-113357829D01*
X159772813Y-113419593D01*
X159797933Y-113470241D01*
X159817179Y-113504596D01*
X159827848Y-113517482D01*
X159827934Y-113517486D01*
X159851166Y-113506128D01*
X159876774Y-113479569D01*
X159895221Y-113449077D01*
X159898886Y-113433630D01*
X159886212Y-113391485D01*
X159854471Y-113355192D01*
X159819572Y-113337483D01*
X159793845Y-113320448D01*
X159764546Y-113287078D01*
X159739235Y-113247851D01*
X159725471Y-113213244D01*
X159724714Y-113206007D01*
X159737160Y-113197861D01*
X159768972Y-113197370D01*
X159811866Y-113203357D01*
X159857558Y-113214643D01*
X159897761Y-113230050D01*
X159899322Y-113230829D01*
X159964062Y-113277196D01*
X160008097Y-113337289D01*
X160029711Y-113405535D01*
X160027185Y-113476362D01*
X159998804Y-113544196D01*
X159996808Y-113547212D01*
X159948448Y-113600573D01*
X159885352Y-113635660D01*
X159802387Y-113655078D01*
X159779078Y-113657684D01*
X159669055Y-113662299D01*
X159617748Y-113656767D01*
X159617748Y-113517486D01*
X159649753Y-113515676D01*
X159659093Y-113505778D01*
X159652105Y-113481102D01*
X159635587Y-113442205D01*
X159614881Y-113398725D01*
X159614333Y-113397644D01*
X159594949Y-113360791D01*
X159582013Y-113346000D01*
X159568451Y-113349647D01*
X159550632Y-113365005D01*
X159524845Y-113404077D01*
X159522950Y-113446154D01*
X159541717Y-113483897D01*
X159577915Y-113509966D01*
X159617748Y-113517486D01*
X159617748Y-113656767D01*
X159581027Y-113652806D01*
X159511212Y-113628450D01*
X159462302Y-113594544D01*
X159412878Y-113533347D01*
X159388359Y-113465937D01*
X159386797Y-113397120D01*
X159406239Y-113331697D01*
G37*
X159406239Y-113331697D02*
X159444735Y-113274473D01*
X159500335Y-113230251D01*
X159571086Y-113203833D01*
X159623162Y-113198490D01*
X159644893Y-113199097D01*
X159661531Y-113204178D01*
X159676437Y-113218145D01*
X159692973Y-113245411D01*
X159714498Y-113290388D01*
X159744374Y-113357489D01*
X159744524Y-113357829D01*
X159772813Y-113419593D01*
X159797933Y-113470241D01*
X159817179Y-113504596D01*
X159827848Y-113517482D01*
X159827934Y-113517486D01*
X159851166Y-113506128D01*
X159876774Y-113479569D01*
X159895221Y-113449077D01*
X159898886Y-113433630D01*
X159886212Y-113391485D01*
X159854471Y-113355192D01*
X159819572Y-113337483D01*
X159793845Y-113320448D01*
X159764546Y-113287078D01*
X159739235Y-113247851D01*
X159725471Y-113213244D01*
X159724714Y-113206007D01*
X159737160Y-113197861D01*
X159768972Y-113197370D01*
X159811866Y-113203357D01*
X159857558Y-113214643D01*
X159897761Y-113230050D01*
X159899322Y-113230829D01*
X159964062Y-113277196D01*
X160008097Y-113337289D01*
X160029711Y-113405535D01*
X160027185Y-113476362D01*
X159998804Y-113544196D01*
X159996808Y-113547212D01*
X159948448Y-113600573D01*
X159885352Y-113635660D01*
X159802387Y-113655078D01*
X159779078Y-113657684D01*
X159669055Y-113662299D01*
X159617748Y-113656767D01*
X159617748Y-113517486D01*
X159649753Y-113515676D01*
X159659093Y-113505778D01*
X159652105Y-113481102D01*
X159635587Y-113442205D01*
X159614881Y-113398725D01*
X159614333Y-113397644D01*
X159594949Y-113360791D01*
X159582013Y-113346000D01*
X159568451Y-113349647D01*
X159550632Y-113365005D01*
X159524845Y-113404077D01*
X159522950Y-113446154D01*
X159541717Y-113483897D01*
X159577915Y-113509966D01*
X159617748Y-113517486D01*
X159617748Y-113656767D01*
X159581027Y-113652806D01*
X159511212Y-113628450D01*
X159462302Y-113594544D01*
X159412878Y-113533347D01*
X159388359Y-113465937D01*
X159386797Y-113397120D01*
X159406239Y-113331697D01*
G36*
X159396962Y-114458885D02*
G01*
X159432733Y-114390855D01*
X159490301Y-114340649D01*
X159527312Y-114322815D01*
X159582882Y-114308937D01*
X159653096Y-114301833D01*
X159729727Y-114301160D01*
X159804552Y-114306573D01*
X159869342Y-114317730D01*
X159915873Y-114334286D01*
X159923887Y-114339374D01*
X159983707Y-114399645D01*
X160019535Y-114471231D01*
X160030020Y-114548908D01*
X160013810Y-114627452D01*
X160004092Y-114649311D01*
X159974143Y-114691878D01*
X159934433Y-114729237D01*
X159929397Y-114732768D01*
X159905124Y-114747119D01*
X159879178Y-114756606D01*
X159845022Y-114762210D01*
X159796119Y-114764914D01*
X159725935Y-114765701D01*
X159710200Y-114765714D01*
X159705192Y-114765678D01*
X159705192Y-114620571D01*
X159771430Y-114619727D01*
X159815386Y-114616404D01*
X159843779Y-114609417D01*
X159863325Y-114597584D01*
X159869857Y-114591543D01*
X159894680Y-114556814D01*
X159893548Y-114523097D01*
X159872016Y-114489005D01*
X159849029Y-114468671D01*
X159815478Y-114456629D01*
X159762569Y-114449866D01*
X159756399Y-114449402D01*
X159660513Y-114448248D01*
X159589299Y-114460312D01*
X159543194Y-114485430D01*
X159522635Y-114523440D01*
X159521514Y-114537008D01*
X159527152Y-114572636D01*
X159546686Y-114597006D01*
X159584042Y-114611907D01*
X159643150Y-114619125D01*
X159705192Y-114620571D01*
X159705192Y-114765678D01*
X159635413Y-114765174D01*
X159583159Y-114762904D01*
X159546949Y-114757932D01*
X159520299Y-114749287D01*
X159496722Y-114735995D01*
X159492338Y-114733057D01*
X159433249Y-114683687D01*
X159398947Y-114629891D01*
X159385331Y-114564398D01*
X159384665Y-114542158D01*
X159396962Y-114458885D01*
G37*
X159396962Y-114458885D02*
X159432733Y-114390855D01*
X159490301Y-114340649D01*
X159527312Y-114322815D01*
X159582882Y-114308937D01*
X159653096Y-114301833D01*
X159729727Y-114301160D01*
X159804552Y-114306573D01*
X159869342Y-114317730D01*
X159915873Y-114334286D01*
X159923887Y-114339374D01*
X159983707Y-114399645D01*
X160019535Y-114471231D01*
X160030020Y-114548908D01*
X160013810Y-114627452D01*
X160004092Y-114649311D01*
X159974143Y-114691878D01*
X159934433Y-114729237D01*
X159929397Y-114732768D01*
X159905124Y-114747119D01*
X159879178Y-114756606D01*
X159845022Y-114762210D01*
X159796119Y-114764914D01*
X159725935Y-114765701D01*
X159710200Y-114765714D01*
X159705192Y-114765678D01*
X159705192Y-114620571D01*
X159771430Y-114619727D01*
X159815386Y-114616404D01*
X159843779Y-114609417D01*
X159863325Y-114597584D01*
X159869857Y-114591543D01*
X159894680Y-114556814D01*
X159893548Y-114523097D01*
X159872016Y-114489005D01*
X159849029Y-114468671D01*
X159815478Y-114456629D01*
X159762569Y-114449866D01*
X159756399Y-114449402D01*
X159660513Y-114448248D01*
X159589299Y-114460312D01*
X159543194Y-114485430D01*
X159522635Y-114523440D01*
X159521514Y-114537008D01*
X159527152Y-114572636D01*
X159546686Y-114597006D01*
X159584042Y-114611907D01*
X159643150Y-114619125D01*
X159705192Y-114620571D01*
X159705192Y-114765678D01*
X159635413Y-114765174D01*
X159583159Y-114762904D01*
X159546949Y-114757932D01*
X159520299Y-114749287D01*
X159496722Y-114735995D01*
X159492338Y-114733057D01*
X159433249Y-114683687D01*
X159398947Y-114629891D01*
X159385331Y-114564398D01*
X159384665Y-114542158D01*
X159396962Y-114458885D01*
G36*
X159402780Y-112783907D02*
G01*
X159429723Y-112737328D01*
X159456466Y-112704943D01*
X159484484Y-112681258D01*
X159518748Y-112664941D01*
X159564227Y-112654661D01*
X159625892Y-112649086D01*
X159708711Y-112646884D01*
X159768246Y-112646629D01*
X159987391Y-112646629D01*
X160015044Y-112708314D01*
X160042697Y-112770000D01*
X159802670Y-112777257D01*
X159713028Y-112780256D01*
X159647962Y-112783402D01*
X159603026Y-112787299D01*
X159573770Y-112792553D01*
X159555748Y-112799769D01*
X159544511Y-112809550D01*
X159542079Y-112812688D01*
X159523083Y-112860239D01*
X159530600Y-112908303D01*
X159550543Y-112936914D01*
X159564675Y-112948553D01*
X159583220Y-112956609D01*
X159611334Y-112961729D01*
X159654173Y-112964559D01*
X159716895Y-112965744D01*
X159782261Y-112965943D01*
X159864268Y-112965982D01*
X159922316Y-112967386D01*
X159961465Y-112972086D01*
X159986780Y-112982013D01*
X160003323Y-112999097D01*
X160016156Y-113025268D01*
X160029491Y-113060225D01*
X160044007Y-113098404D01*
X159786389Y-113093859D01*
X159693519Y-113092029D01*
X159624889Y-113089888D01*
X159575711Y-113086819D01*
X159541198Y-113082206D01*
X159516562Y-113075432D01*
X159497016Y-113065881D01*
X159479770Y-113054366D01*
X159424680Y-112998810D01*
X159392822Y-112931020D01*
X159385191Y-112857287D01*
X159402780Y-112783907D01*
G37*
X159402780Y-112783907D02*
X159429723Y-112737328D01*
X159456466Y-112704943D01*
X159484484Y-112681258D01*
X159518748Y-112664941D01*
X159564227Y-112654661D01*
X159625892Y-112649086D01*
X159708711Y-112646884D01*
X159768246Y-112646629D01*
X159987391Y-112646629D01*
X160015044Y-112708314D01*
X160042697Y-112770000D01*
X159802670Y-112777257D01*
X159713028Y-112780256D01*
X159647962Y-112783402D01*
X159603026Y-112787299D01*
X159573770Y-112792553D01*
X159555748Y-112799769D01*
X159544511Y-112809550D01*
X159542079Y-112812688D01*
X159523083Y-112860239D01*
X159530600Y-112908303D01*
X159550543Y-112936914D01*
X159564675Y-112948553D01*
X159583220Y-112956609D01*
X159611334Y-112961729D01*
X159654173Y-112964559D01*
X159716895Y-112965744D01*
X159782261Y-112965943D01*
X159864268Y-112965982D01*
X159922316Y-112967386D01*
X159961465Y-112972086D01*
X159986780Y-112982013D01*
X160003323Y-112999097D01*
X160016156Y-113025268D01*
X160029491Y-113060225D01*
X160044007Y-113098404D01*
X159786389Y-113093859D01*
X159693519Y-113092029D01*
X159624889Y-113089888D01*
X159575711Y-113086819D01*
X159541198Y-113082206D01*
X159516562Y-113075432D01*
X159497016Y-113065881D01*
X159479770Y-113054366D01*
X159424680Y-112998810D01*
X159392822Y-112931020D01*
X159385191Y-112857287D01*
X159402780Y-112783907D01*
G36*
X159394918Y-113900256D02*
G01*
X159422568Y-113844799D01*
X159473480Y-113795852D01*
X159492338Y-113782371D01*
X159517015Y-113767686D01*
X159543816Y-113758158D01*
X159579587Y-113752707D01*
X159631169Y-113750253D01*
X159699267Y-113749714D01*
X159792588Y-113752148D01*
X159862657Y-113760606D01*
X159914931Y-113776826D01*
X159954869Y-113802546D01*
X159987929Y-113839503D01*
X159989886Y-113842218D01*
X160009908Y-113878640D01*
X160019815Y-113922498D01*
X160022257Y-113978276D01*
X160022257Y-114068952D01*
X160110283Y-114068990D01*
X160159308Y-114069834D01*
X160188065Y-114074976D01*
X160205311Y-114088413D01*
X160219808Y-114114142D01*
X160222769Y-114120321D01*
X160236648Y-114149236D01*
X160245414Y-114171624D01*
X160246171Y-114188271D01*
X160236023Y-114199964D01*
X160212073Y-114207490D01*
X160171426Y-114211634D01*
X160111186Y-114213185D01*
X160028455Y-114212929D01*
X159920339Y-114211651D01*
X159888000Y-114211252D01*
X159776524Y-114209815D01*
X159703603Y-114208528D01*
X159703603Y-114069029D01*
X159765499Y-114068245D01*
X159805997Y-114064760D01*
X159832708Y-114056876D01*
X159853244Y-114042895D01*
X159863260Y-114033403D01*
X159892567Y-113994596D01*
X159894952Y-113960237D01*
X159870750Y-113924784D01*
X159869857Y-113923886D01*
X159851153Y-113909461D01*
X159825732Y-113900687D01*
X159786584Y-113896261D01*
X159726697Y-113894882D01*
X159713430Y-113894857D01*
X159630901Y-113898188D01*
X159573691Y-113909031D01*
X159538766Y-113928660D01*
X159523094Y-113958350D01*
X159521514Y-113975509D01*
X159528926Y-114016234D01*
X159553330Y-114044168D01*
X159597980Y-114060983D01*
X159666130Y-114068350D01*
X159703603Y-114069029D01*
X159703603Y-114208528D01*
X159690245Y-114208292D01*
X159625333Y-114206323D01*
X159577958Y-114203550D01*
X159544290Y-114199612D01*
X159520498Y-114194151D01*
X159502753Y-114186808D01*
X159487224Y-114177223D01*
X159481381Y-114173113D01*
X159426185Y-114118595D01*
X159394890Y-114049664D01*
X159386165Y-113969928D01*
X159394918Y-113900256D01*
G37*
X159394918Y-113900256D02*
X159422568Y-113844799D01*
X159473480Y-113795852D01*
X159492338Y-113782371D01*
X159517015Y-113767686D01*
X159543816Y-113758158D01*
X159579587Y-113752707D01*
X159631169Y-113750253D01*
X159699267Y-113749714D01*
X159792588Y-113752148D01*
X159862657Y-113760606D01*
X159914931Y-113776826D01*
X159954869Y-113802546D01*
X159987929Y-113839503D01*
X159989886Y-113842218D01*
X160009908Y-113878640D01*
X160019815Y-113922498D01*
X160022257Y-113978276D01*
X160022257Y-114068952D01*
X160110283Y-114068990D01*
X160159308Y-114069834D01*
X160188065Y-114074976D01*
X160205311Y-114088413D01*
X160219808Y-114114142D01*
X160222769Y-114120321D01*
X160236648Y-114149236D01*
X160245414Y-114171624D01*
X160246171Y-114188271D01*
X160236023Y-114199964D01*
X160212073Y-114207490D01*
X160171426Y-114211634D01*
X160111186Y-114213185D01*
X160028455Y-114212929D01*
X159920339Y-114211651D01*
X159888000Y-114211252D01*
X159776524Y-114209815D01*
X159703603Y-114208528D01*
X159703603Y-114069029D01*
X159765499Y-114068245D01*
X159805997Y-114064760D01*
X159832708Y-114056876D01*
X159853244Y-114042895D01*
X159863260Y-114033403D01*
X159892567Y-113994596D01*
X159894952Y-113960237D01*
X159870750Y-113924784D01*
X159869857Y-113923886D01*
X159851153Y-113909461D01*
X159825732Y-113900687D01*
X159786584Y-113896261D01*
X159726697Y-113894882D01*
X159713430Y-113894857D01*
X159630901Y-113898188D01*
X159573691Y-113909031D01*
X159538766Y-113928660D01*
X159523094Y-113958350D01*
X159521514Y-113975509D01*
X159528926Y-114016234D01*
X159553330Y-114044168D01*
X159597980Y-114060983D01*
X159666130Y-114068350D01*
X159703603Y-114069029D01*
X159703603Y-114208528D01*
X159690245Y-114208292D01*
X159625333Y-114206323D01*
X159577958Y-114203550D01*
X159544290Y-114199612D01*
X159520498Y-114194151D01*
X159502753Y-114186808D01*
X159487224Y-114177223D01*
X159481381Y-114173113D01*
X159426185Y-114118595D01*
X159394890Y-114049664D01*
X159386165Y-113969928D01*
X159394918Y-113900256D01*
D11*
X145080000Y-136850000D02*
X145080000Y-135920000D01*
X145080000Y-133690000D02*
X145080000Y-134620000D01*
X145080000Y-133690000D02*
X142920000Y-133690000D01*
X145080000Y-136850000D02*
X143620000Y-136850000D01*
X161985000Y-126390000D02*
X161985000Y-135550000D01*
X161985000Y-135550000D02*
X160280000Y-135550000D01*
X160280000Y-126390000D02*
X161985000Y-126390000D01*
X158270000Y-126390000D02*
X156350000Y-126390000D01*
X156350000Y-135550000D02*
X158270000Y-135550000D01*
X151722936Y-106145000D02*
X152177064Y-106145000D01*
X151722936Y-107615000D02*
X152177064Y-107615000D01*
X151742936Y-109655000D02*
X152197064Y-109655000D01*
X151742936Y-108185000D02*
X152197064Y-108185000D01*
X150795000Y-126785000D02*
X149465000Y-126785000D01*
X150795000Y-125455000D02*
X150795000Y-126785000D01*
X148195000Y-126785000D02*
X145595000Y-126785000D01*
X148195000Y-124185000D02*
X148195000Y-126785000D01*
X150795000Y-124185000D02*
X148195000Y-124185000D01*
X145595000Y-126785000D02*
X145595000Y-116505000D01*
X150795000Y-124185000D02*
X150795000Y-116505000D01*
X150795000Y-116505000D02*
X145595000Y-116505000D01*
X157600000Y-117130000D02*
X157600000Y-117510000D01*
X161650000Y-117130000D02*
X161910000Y-117130000D01*
X157600000Y-117130000D02*
X159370000Y-117130000D01*
X157600000Y-124750000D02*
X157600000Y-124370000D01*
X159370000Y-124750000D02*
X157600000Y-124750000D01*
X161910000Y-124750000D02*
X161650000Y-124750000D01*
X149900000Y-135990000D02*
X150830000Y-135990000D01*
X153060000Y-135990000D02*
X152130000Y-135990000D01*
X153060000Y-135990000D02*
X153060000Y-133830000D01*
X149900000Y-135990000D02*
X149900000Y-134530000D01*
X148600000Y-136820000D02*
X148600000Y-135890000D01*
X148600000Y-133660000D02*
X148600000Y-134590000D01*
X148600000Y-133660000D02*
X146440000Y-133660000D01*
X148600000Y-136820000D02*
X147140000Y-136820000D01*
X141570000Y-136850000D02*
X141570000Y-135920000D01*
X141570000Y-133690000D02*
X141570000Y-134620000D01*
X141570000Y-133690000D02*
X139410000Y-133690000D01*
X141570000Y-136850000D02*
X140110000Y-136850000D01*
X141880000Y-88100000D02*
X141270000Y-88100000D01*
X141880000Y-88100000D02*
X141880000Y-80480000D01*
X141880000Y-104720000D02*
X141880000Y-104100000D01*
X144000000Y-104720000D02*
X141880000Y-104720000D01*
X158120000Y-104720000D02*
X156000000Y-104720000D01*
X158120000Y-104100000D02*
X158120000Y-104720000D01*
X158120000Y-80480000D02*
X158120000Y-88100000D01*
X141880000Y-80480000D02*
X158120000Y-80480000D01*
X160910000Y-94127064D02*
X160910000Y-93672936D01*
X159440000Y-94127064D02*
X159440000Y-93672936D01*
X139085000Y-98619564D02*
X139085000Y-98165436D01*
X140555000Y-98619564D02*
X140555000Y-98165436D01*
X159415000Y-97947936D02*
X159415000Y-98402064D01*
X160885000Y-97947936D02*
X160885000Y-98402064D01*
X159415000Y-90602064D02*
X159415000Y-90147936D01*
X160885000Y-90602064D02*
X160885000Y-90147936D01*
X143330000Y-107353748D02*
X143330000Y-107876252D01*
X144800000Y-107353748D02*
X144800000Y-107876252D01*
X141265000Y-107348748D02*
X141265000Y-107871252D01*
X142735000Y-107348748D02*
X142735000Y-107871252D01*
X144780000Y-116200000D02*
X143530000Y-116200000D01*
X144780000Y-117450000D02*
X144780000Y-116200000D01*
X139280000Y-125850000D02*
X139280000Y-121550000D01*
X142230000Y-125850000D02*
X139280000Y-125850000D01*
X142230000Y-126600000D02*
X142230000Y-125850000D01*
X139280000Y-117250000D02*
X139280000Y-121550000D01*
X142230000Y-117250000D02*
X139280000Y-117250000D01*
X142230000Y-116500000D02*
X142230000Y-117250000D01*
X144480000Y-126600000D02*
X144480000Y-124800000D01*
X143730000Y-126600000D02*
X144480000Y-126600000D01*
X143730000Y-124800000D02*
X143730000Y-126600000D01*
X144480000Y-124800000D02*
X143730000Y-124800000D01*
X144480000Y-118300000D02*
X144480000Y-116500000D01*
X143730000Y-118300000D02*
X144480000Y-118300000D01*
X143730000Y-116500000D02*
X143730000Y-118300000D01*
X144480000Y-116500000D02*
X143730000Y-116500000D01*
X144480000Y-123300000D02*
X144480000Y-119800000D01*
X143730000Y-123300000D02*
X144480000Y-123300000D01*
X143730000Y-119800000D02*
X143730000Y-123300000D01*
X144480000Y-119800000D02*
X143730000Y-119800000D01*
X144490000Y-126610000D02*
X144490000Y-116490000D01*
X138520000Y-126610000D02*
X144490000Y-126610000D01*
X138520000Y-116490000D02*
X138520000Y-126610000D01*
X144490000Y-116490000D02*
X138520000Y-116490000D01*
X149985000Y-111420000D02*
X149055000Y-111420000D01*
X146825000Y-111420000D02*
X147755000Y-111420000D01*
X146825000Y-111420000D02*
X146825000Y-113580000D01*
X149985000Y-111420000D02*
X149985000Y-112880000D01*
X141100000Y-114940000D02*
X141100000Y-113480000D01*
X144260000Y-114940000D02*
X144260000Y-112780000D01*
X144260000Y-114940000D02*
X143330000Y-114940000D01*
X141100000Y-114940000D02*
X142030000Y-114940000D01*
X140505000Y-94237064D02*
X140505000Y-93782936D01*
X139035000Y-94237064D02*
X139035000Y-93782936D01*
X148177936Y-114245000D02*
X148632064Y-114245000D01*
X148177936Y-115715000D02*
X148632064Y-115715000D01*
X144312936Y-111850000D02*
X144767064Y-111850000D01*
X144312936Y-110380000D02*
X144767064Y-110380000D01*
X146240000Y-113977936D02*
X146240000Y-114432064D01*
X144770000Y-113977936D02*
X144770000Y-114432064D01*
X140537936Y-110430000D02*
X140992064Y-110430000D01*
X140537936Y-111900000D02*
X140992064Y-111900000D01*
X139145000Y-113952936D02*
X139145000Y-114407064D01*
X140615000Y-113952936D02*
X140615000Y-114407064D01*
X160885000Y-101822936D02*
X160885000Y-102277064D01*
X159415000Y-101822936D02*
X159415000Y-102277064D01*
X146622936Y-109805000D02*
X147077064Y-109805000D01*
X146622936Y-108335000D02*
X147077064Y-108335000D01*
X146622936Y-107775000D02*
X147077064Y-107775000D01*
X146622936Y-106305000D02*
X147077064Y-106305000D01*
M02*
