M48
; DRILL file {KiCad 5.1.8} date Thu Dec 10 12:57:14 2020
; FORMAT={-:-/ absolute / inch / decimal}
; #@! TF.CreationDate,2020-12-10T12:57:14+01:00
; #@! TF.GenerationSoftware,Kicad,Pcbnew,5.1.8
; #@! TF.FileFunction,Plated,1,2,PTH
FMAT,2
INCH
T1C0.0157
T2C0.0236
T3C0.0374
T4C0.0394
%
G90
G05
T1
X5.4756Y-5.1535
X5.4866Y-4.7248
X5.4874Y-3.5866
X5.4969Y-3.5157
X5.5037Y-3.7878
X5.5071Y-4.6425
X5.5358Y-4.1937
X5.5436Y-3.7815
X5.5441Y-4.2378
X5.5602Y-4.3197
X5.5697Y-4.9772
X5.6567Y-4.1075
X5.6697Y-3.5469
X5.7106Y-5.1504
X5.7366Y-4.8878
X5.7449Y-4.0209
X5.7843Y-3.5024
X5.8012Y-3.8228
X5.8126Y-5.1488
X5.8213Y-3.6551
X5.8382Y-4.011
X5.8752Y-4.2059
X5.8839Y-4.2648
X5.9122Y-4.3787
X5.9909Y-3.9075
X5.9913Y-3.6984
X5.9937Y-4.9461
X5.9988Y-4.0
X6.0079Y-3.5543
X6.0106Y-4.7346
X6.0252Y-4.5008
X6.1756Y-4.2217
X6.1768Y-4.5488
X6.178Y-5.0569
X6.2205Y-4.1705
X6.2402Y-4.2697
X6.3035Y-4.2008
X6.3059Y-3.7807
X6.3287Y-5.0819
X6.3504Y-3.5587
T3
X5.5642Y-5.2063
X5.6626Y-5.2063
X5.761Y-5.2063
X5.8594Y-5.2063
X5.9579Y-5.2063
X5.5917Y-4.687
X5.5917Y-4.7854
X5.5917Y-4.8839
T4
X5.5256Y-5.0386
X5.6256Y-5.0386
X5.7256Y-5.0386
X5.8256Y-5.0386
X5.9256Y-5.0386
X5.7844Y-4.6392
X5.7844Y-4.7392
X5.7844Y-4.8392
X5.7844Y-4.9392
X5.8844Y-4.6392
X5.8844Y-4.7392
X5.8844Y-4.8392
X5.8844Y-4.9392
T2
G00X6.0844Y-4.9862
M15
G01X6.1278Y-4.9862
M16
G05
G00X6.0844Y-5.3264
M15
G01X6.1278Y-5.3264
M16
G05
G00X6.2589Y-4.9862
M15
G01X6.2825Y-4.9862
M16
G05
G00X6.2589Y-5.3264
M15
G01X6.2825Y-5.3264
M16
G05
T0
M30
